<svg id="svg" version="1.1" xmlns="http://www.w3.org/2000/svg" xmlns:xlink="http://www.w3.org/1999/xlink" width="400" height="400" viewBox="0, 0, 400,400"><g id="svgg"><path id="path0" d="M157.680 119.280 C 157.416 119.544,157.200 120.228,157.200 120.800 C 157.200 122.909,159.476 123.571,160.637 121.800 C 161.853 119.943,159.242 117.718,157.680 119.280 M176.262 119.531 C 175.402 120.482,175.424 121.317,176.331 122.138 C 177.388 123.094,178.681 122.953,179.437 121.800 C 180.778 119.754,177.913 117.707,176.262 119.531 M165.376 139.778 C 165.804 140.120,166.434 140.386,166.776 140.368 C 167.315 140.341,167.318 140.307,166.800 140.114 C 166.470 139.992,165.840 139.726,165.400 139.524 C 164.613 139.162,164.612 139.166,165.376 139.778 M170.200 139.874 L 169.000 140.434 170.199 140.185 C 171.438 139.927,171.855 139.705,171.567 139.457 C 171.475 139.378,170.860 139.566,170.200 139.874 M172.908 153.609 C 172.418 153.807,170.571 154.020,168.804 154.084 C 166.118 154.181,165.638 154.298,165.870 154.800 C 166.441 156.035,167.759 199.197,167.242 199.717 C 166.671 200.290,161.606 200.873,159.079 200.656 C 156.185 200.407,156.671 200.407,152.559 200.659 C 149.466 200.848,149.229 200.801,147.381 199.629 C 145.119 198.194,144.089 198.100,142.691 199.200 C 140.869 200.633,139.663 200.316,133.723 196.840 C 127.791 193.370,126.130 194.170,124.449 201.306 C 123.734 204.340,123.826 204.682,125.500 205.221 C 128.008 206.029,128.483 206.660,127.397 207.746 C 126.987 208.156,126.355 208.278,125.421 208.126 L 124.048 207.903 124.124 212.427 C 124.215 217.869,124.745 217.502,116.720 217.560 C 112.072 217.594,111.185 217.502,110.879 216.956 C 110.548 216.365,110.499 216.365,110.272 216.956 C 109.555 218.824,99.217 217.323,95.400 214.797 C 89.605 210.962,86.530 210.682,85.607 213.905 C 84.294 218.485,83.991 221.471,84.236 227.400 C 84.444 232.431,84.350 234.207,83.650 238.400 C 83.192 241.150,82.454 245.877,82.011 248.904 C 80.569 258.759,77.774 270.563,74.555 280.393 C 71.339 290.218,69.770 300.027,69.212 313.800 C 68.838 323.043,68.751 322.592,71.000 323.154 C 71.880 323.374,73.320 323.746,74.200 323.981 C 80.323 325.612,100.114 329.091,108.400 329.993 C 120.099 331.267,145.674 331.591,172.994 330.812 C 180.477 330.598,193.440 330.236,201.800 330.007 C 216.198 329.612,222.489 329.336,238.800 328.382 C 252.950 327.554,264.118 325.777,272.580 323.006 C 273.471 322.714,276.090 321.902,278.400 321.201 C 283.398 319.685,289.483 317.694,290.600 317.211 C 291.040 317.020,292.750 316.376,294.400 315.779 C 300.645 313.521,309.416 308.506,312.195 305.605 C 313.500 304.243,314.034 304.142,315.350 305.004 C 316.381 305.679,316.483 305.650,329.200 301.008 C 332.610 299.764,335.760 298.636,336.200 298.502 C 339.976 297.352,351.308 290.480,353.213 288.184 C 354.695 286.399,352.489 286.147,350.701 287.896 C 348.747 289.809,340.543 293.903,333.686 296.386 C 331.329 297.240,327.870 298.512,326.000 299.213 C 322.590 300.492,315.220 302.700,313.031 303.098 C 312.388 303.215,311.271 303.902,310.549 304.624 C 307.280 307.893,287.565 316.029,272.098 320.492 C 268.536 321.520,268.573 321.557,269.139 317.505 C 269.393 315.687,269.601 310.735,269.601 306.500 C 269.600 301.747,269.750 298.800,269.991 298.800 C 270.207 298.800,272.592 299.158,275.291 299.595 C 285.245 301.208,308.840 301.916,309.338 300.617 C 309.754 299.534,310.057 287.017,309.726 284.601 L 309.397 282.203 305.998 281.504 C 300.706 280.416,295.905 279.256,289.600 277.541 C 282.726 275.671,280.653 274.935,274.688 272.243 C 273.417 271.669,272.306 271.200,272.219 271.200 C 272.133 271.200,270.743 270.579,269.131 269.821 C 267.519 269.062,266.092 268.567,265.960 268.721 C 265.063 269.765,264.418 272.609,264.643 274.523 C 265.131 278.682,260.744 280.937,257.960 277.958 C 256.213 276.087,256.351 274.303,258.393 272.361 C 259.723 271.096,261.599 267.553,261.600 266.306 C 261.600 266.144,260.565 265.479,259.300 264.828 C 258.035 264.177,255.380 262.660,253.400 261.457 C 250.939 259.962,249.653 259.391,249.334 259.655 C 248.394 260.434,246.800 265.201,246.800 267.235 C 246.800 271.766,241.388 273.445,239.369 269.540 C 238.395 267.657,238.903 265.876,240.861 264.305 C 242.182 263.246,245.600 257.719,245.600 256.643 C 245.600 256.547,244.655 255.784,243.500 254.947 C 242.345 254.111,239.987 252.295,238.260 250.913 C 234.504 247.907,234.770 247.940,233.302 250.300 C 230.810 254.309,230.101 255.866,229.893 257.787 C 229.623 260.288,228.294 261.600,226.032 261.600 C 221.731 261.600,220.532 255.602,224.504 253.957 C 225.837 253.405,230.962 246.057,230.729 245.031 C 230.658 244.718,229.084 242.893,227.230 240.976 L 223.861 237.491 222.230 239.272 C 217.247 244.715,215.600 246.884,215.600 248.005 C 215.600 251.049,210.949 252.727,208.711 250.489 C 206.571 248.349,208.416 243.600,211.386 243.600 C 211.922 243.600,212.504 243.343,212.680 243.030 C 212.856 242.716,214.083 241.321,215.406 239.930 C 218.915 236.239,220.402 234.436,220.388 233.886 C 220.375 233.330,214.925 225.866,214.392 225.674 C 213.660 225.409,204.800 235.112,204.800 236.178 C 204.800 238.198,202.911 240.028,200.763 240.089 C 196.059 240.222,195.167 233.637,199.714 232.344 C 201.081 231.956,202.366 230.873,206.500 226.632 C 212.134 220.852,211.971 221.143,210.673 219.193 C 210.163 218.427,209.074 216.584,208.252 215.097 C 206.475 211.884,206.804 211.815,201.792 216.457 C 195.735 222.067,194.800 223.065,194.800 223.917 C 194.800 226.743,190.072 228.405,188.076 226.281 C 185.695 223.747,187.541 219.208,190.956 219.201 C 191.711 219.200,193.914 217.411,200.500 211.454 C 204.701 207.653,204.657 208.591,200.941 202.234 C 188.558 181.052,185.172 178.455,180.157 186.294 C 178.054 189.582,177.752 188.978,177.014 179.997 C 176.680 175.928,176.219 170.350,175.991 167.600 C 175.762 164.850,175.492 160.890,175.390 158.800 C 175.114 153.135,174.948 152.789,172.908 153.609 M134.700 207.708 C 135.300 208.176,135.360 209.454,134.799 209.801 C 133.354 210.694,128.941 208.742,129.443 207.432 C 129.838 206.404,133.260 206.583,134.700 207.708 M188.426 209.214 C 190.379 210.259,188.751 212.000,185.820 212.000 C 182.529 212.000,181.654 209.886,184.739 209.384 C 186.173 209.151,187.276 208.938,187.526 208.846 C 187.596 208.821,188.001 208.986,188.426 209.214 M181.011 210.412 C 181.691 211.164,181.698 211.274,181.094 211.878 C 180.120 212.851,176.330 213.080,175.607 212.209 C 174.037 210.316,179.331 208.556,181.011 210.412 M173.765 211.143 C 174.648 212.573,170.011 213.785,168.460 212.529 C 167.003 211.349,167.676 210.462,170.135 210.320 C 172.163 210.202,173.350 210.472,173.765 211.143 M158.000 211.547 C 158.000 212.181,157.462 212.384,156.937 211.948 C 156.039 211.203,156.249 210.291,157.200 210.800 C 157.640 211.035,158.000 211.372,158.000 211.547 M164.989 210.942 C 165.442 211.274,165.632 211.739,165.478 212.142 C 165.133 213.041,161.127 213.076,160.390 212.187 C 159.241 210.804,163.297 209.705,164.989 210.942 M177.992 215.584 C 178.950 217.462,179.037 219.134,178.195 219.457 C 176.962 219.930,174.637 216.511,175.069 214.859 C 175.462 213.354,177.056 213.749,177.992 215.584 M181.086 222.359 C 182.494 224.454,182.091 227.125,180.511 226.170 C 179.463 225.537,177.814 222.261,178.130 221.439 C 178.545 220.357,180.056 220.827,181.086 222.359 M184.686 228.759 C 185.734 230.318,185.892 232.313,184.995 232.657 C 184.188 232.967,183.311 232.186,182.351 230.304 C 180.821 227.305,182.820 225.982,184.686 228.759 M188.931 235.392 C 190.199 237.399,190.204 238.541,188.946 238.721 C 187.865 238.876,185.600 236.116,185.600 234.642 C 185.600 232.773,187.555 233.213,188.931 235.392 M193.166 241.158 C 194.524 242.871,194.757 244.288,193.746 244.676 C 192.346 245.213,189.069 241.322,189.988 240.214 C 190.828 239.203,191.861 239.509,193.166 241.158 M198.084 246.840 C 199.710 248.550,199.874 249.416,198.710 250.148 C 197.331 251.017,193.910 246.623,195.067 245.467 C 195.671 244.863,196.609 245.290,198.084 246.840 M203.128 251.831 C 204.894 253.343,205.343 254.906,204.144 255.366 C 202.966 255.818,200.000 253.302,200.000 251.851 C 200.000 249.943,200.915 249.937,203.128 251.831 M208.916 256.700 C 210.528 257.927,210.884 258.516,210.545 259.400 C 209.910 261.054,205.600 258.741,205.600 256.746 C 205.600 255.217,206.944 255.199,208.916 256.700 M215.309 261.229 C 216.954 262.585,217.236 263.808,215.994 264.202 C 215.079 264.492,212.729 263.205,211.830 261.921 C 210.359 259.821,212.970 259.302,215.309 261.229 M119.244 262.808 C 128.060 264.480,134.796 272.365,135.468 281.800 C 136.799 300.473,114.188 311.034,100.682 298.047 C 85.570 283.517,98.546 258.883,119.244 262.808 M221.038 264.601 C 223.464 266.023,223.929 268.000,221.836 268.000 C 219.557 268.000,216.800 264.906,218.300 264.032 C 219.230 263.490,219.095 263.462,221.038 264.601 M112.553 271.939 L 110.525 276.277 105.762 276.989 C 103.143 277.380,100.893 277.761,100.761 277.836 C 100.630 277.910,102.127 279.576,104.089 281.537 C 108.057 285.506,107.818 284.760,106.803 290.000 C 105.770 295.335,105.572 295.225,111.024 292.347 L 114.914 290.293 119.302 292.600 L 123.691 294.907 123.398 292.387 C 123.238 291.001,122.947 289.313,122.753 288.636 C 121.886 285.612,122.158 284.978,125.819 281.514 C 129.820 277.726,129.861 277.841,124.218 277.008 C 118.963 276.232,119.461 276.604,117.016 271.634 C 114.605 266.732,115.000 266.705,112.553 271.939 M227.874 268.436 C 229.695 269.317,230.297 270.958,228.985 271.461 C 227.277 272.117,223.004 268.874,224.408 267.987 C 225.293 267.427,225.971 267.514,227.874 268.436 M234.162 271.707 C 237.854 273.819,236.805 276.154,233.002 274.288 C 230.299 272.963,229.840 270.986,232.200 270.838 C 232.420 270.824,233.303 271.215,234.162 271.707 M116.664 274.625 C 118.390 277.869,118.426 277.896,121.373 278.212 C 125.175 278.619,125.339 279.105,122.611 281.877 C 120.629 283.891,120.371 284.331,120.558 285.390 C 121.631 291.462,121.575 291.534,117.466 289.391 L 114.763 287.982 112.173 289.430 C 108.343 291.572,107.997 291.168,109.287 286.061 L 109.726 284.323 107.248 281.920 C 104.346 279.107,104.434 278.636,107.935 278.270 C 111.103 277.939,111.499 277.737,112.285 276.056 C 114.492 271.339,114.853 271.221,116.664 274.625 M240.803 274.801 C 244.602 276.740,243.533 279.186,239.669 277.395 C 237.129 276.219,236.689 274.254,238.916 274.032 C 239.090 274.014,239.939 274.361,240.803 274.801 M247.709 277.961 C 250.141 279.003,250.650 281.221,248.451 281.191 C 245.311 281.149,242.796 277.571,245.667 277.232 C 245.814 277.214,246.733 277.542,247.709 277.961 M255.000 280.917 C 257.921 282.568,257.134 284.634,253.981 283.594 C 251.744 282.856,250.679 281.774,251.210 280.781 C 251.758 279.757,253.027 279.802,255.000 280.917 M261.900 283.589 C 263.665 284.390,264.122 285.468,263.069 286.343 C 261.991 287.237,258.000 285.411,258.000 284.024 C 258.000 282.651,259.471 282.487,261.900 283.589 M268.512 285.832 C 270.566 286.532,271.282 287.689,270.281 288.690 C 268.878 290.094,263.979 287.271,265.221 285.774 C 265.825 285.047,266.230 285.054,268.512 285.832 M275.671 288.217 C 278.549 288.902,278.614 291.418,275.746 291.095 C 272.813 290.764,270.590 288.418,272.700 287.880 C 273.396 287.703,273.619 287.728,275.671 288.217 M282.154 290.070 C 284.771 290.817,285.606 292.033,284.266 293.145 C 282.718 294.430,278.383 291.666,279.616 290.181 C 280.196 289.482,280.108 289.486,282.154 290.070 M290.613 292.580 C 292.078 293.192,292.594 294.887,291.449 295.326 C 290.370 295.740,286.000 294.214,286.000 293.423 C 286.000 291.929,288.125 291.540,290.613 292.580 M298.500 294.461 C 299.453 294.961,299.410 296.679,298.437 296.988 C 297.294 297.351,294.029 296.401,293.588 295.577 C 292.659 293.842,295.913 293.102,298.500 294.461 M304.600 295.647 C 306.803 296.256,307.296 297.047,306.171 298.172 C 305.534 298.809,304.851 298.769,302.100 297.933 C 298.743 296.913,301.166 294.697,304.600 295.647 M67.792 330.414 C 66.783 332.046,67.968 333.467,70.706 333.909 C 77.486 335.005,87.397 336.142,99.400 337.202 C 102.040 337.435,105.910 337.789,108.000 337.989 C 110.090 338.190,115.130 338.549,119.200 338.788 C 123.270 339.027,129.030 339.399,132.000 339.615 C 150.189 340.937,232.126 340.034,233.666 338.494 C 234.798 337.362,233.853 335.398,232.200 335.446 C 231.320 335.472,222.230 335.786,212.000 336.145 C 201.632 336.509,184.106 336.795,172.400 336.792 C 146.456 336.784,125.975 336.028,107.800 334.408 C 105.380 334.192,101.330 333.839,98.800 333.624 C 91.408 332.994,77.482 331.410,72.000 330.576 C 71.230 330.458,70.029 330.275,69.331 330.169 C 68.632 330.062,67.941 330.172,67.792 330.414 " stroke="none" fill="#283029" fill-rule="evenodd"></path><path id="path1" d="M163.800 96.043 C 155.873 96.732,147.851 102.264,143.513 110.035 C 141.387 113.843,140.667 116.750,140.217 123.341 C 140.006 126.425,139.571 127.200,138.051 127.200 C 137.473 127.200,135.650 127.469,134.000 127.797 C 131.260 128.342,130.162 128.605,126.600 129.570 C 100.329 136.692,84.934 163.852,85.212 202.589 C 85.276 211.533,85.501 213.299,86.452 212.348 C 87.832 210.968,90.872 211.800,95.400 214.797 C 99.232 217.333,109.295 218.789,110.321 216.956 C 110.652 216.365,110.701 216.365,110.928 216.956 C 111.139 217.508,111.966 217.594,116.687 217.560 C 124.742 217.502,124.215 217.862,124.126 212.476 C 124.061 208.522,124.131 207.999,124.726 207.988 C 125.341 207.977,125.339 207.940,124.700 207.568 C 123.895 207.099,123.757 205.365,124.500 205.065 C 124.900 204.904,124.900 204.857,124.500 204.832 C 123.881 204.793,123.867 203.778,124.449 201.306 C 126.130 194.170,127.791 193.370,133.723 196.840 C 139.663 200.316,140.869 200.633,142.691 199.200 C 144.089 198.100,145.119 198.194,147.381 199.629 C 149.229 200.801,149.466 200.848,152.559 200.659 C 156.671 200.407,156.185 200.407,159.079 200.656 C 161.606 200.873,166.671 200.290,167.242 199.717 C 167.805 199.150,166.431 156.036,165.804 154.631 C 165.531 154.017,165.591 153.911,166.101 154.106 C 166.764 154.361,172.363 153.845,173.845 153.393 C 174.933 153.061,175.147 153.812,175.390 158.800 C 175.492 160.890,175.762 164.850,175.991 167.600 C 176.219 170.350,176.680 175.928,177.014 179.997 C 177.413 184.856,177.802 187.574,178.148 187.919 C 178.582 188.354,178.620 188.042,178.365 186.123 C 178.195 184.845,177.856 181.190,177.612 178.000 C 177.368 174.810,176.991 169.950,176.776 167.200 C 175.440 150.159,175.155 152.237,179.105 150.219 C 193.633 142.799,198.653 121.159,189.038 107.400 C 186.171 103.296,177.309 96.800,174.578 96.800 C 174.231 96.800,173.644 96.640,173.274 96.445 C 172.360 95.963,167.228 95.745,163.800 96.043 M139.946 103.082 C 138.492 103.306,135.699 105.790,134.988 107.490 C 133.705 110.562,134.910 116.000,136.874 116.000 C 137.783 116.000,137.779 115.913,136.801 114.310 C 134.060 109.813,137.046 104.613,142.383 104.588 C 144.375 104.579,145.000 104.440,145.000 104.006 C 145.000 103.085,142.682 102.661,139.946 103.082 M191.900 105.232 C 190.545 106.021,191.229 106.382,193.984 106.331 C 199.384 106.232,202.405 110.886,200.000 115.600 C 199.018 117.525,199.016 117.600,199.956 117.600 C 200.904 117.600,202.400 114.572,202.400 112.653 C 202.400 107.468,195.922 102.890,191.900 105.232 M162.677 111.849 C 163.515 112.194,164.740 112.708,165.400 112.991 C 169.490 114.747,170.487 114.751,174.240 113.033 C 175.456 112.476,177.500 111.804,178.782 111.539 C 187.500 109.739,192.573 121.496,185.263 126.561 C 177.914 131.652,177.820 131.779,177.158 137.465 C 176.365 144.275,173.814 147.200,168.669 147.200 C 163.075 147.200,160.663 144.286,159.564 136.200 C 158.943 131.633,158.662 131.101,155.105 127.758 C 150.473 123.405,149.393 121.262,150.052 117.736 C 151.083 112.214,156.937 109.485,162.677 111.849 M157.500 118.822 C 156.388 119.486,156.549 122.131,157.740 122.768 C 159.094 123.493,160.357 123.166,161.126 121.892 C 162.437 119.721,159.773 117.465,157.500 118.822 M175.823 119.289 C 174.628 120.995,175.708 123.200,177.738 123.200 C 178.645 123.200,180.000 122.110,180.000 121.380 C 180.000 121.183,179.720 121.422,179.377 121.911 C 178.303 123.445,175.600 122.600,175.600 120.730 C 175.600 118.978,178.348 118.220,179.377 119.689 C 179.734 120.199,180.000 120.346,180.000 120.033 C 180.000 118.419,176.828 117.854,175.823 119.289 M160.637 119.800 C 161.244 120.726,161.244 120.874,160.637 121.800 C 159.476 123.571,157.200 122.909,157.200 120.800 C 157.200 118.691,159.476 118.029,160.637 119.800 M165.601 128.500 C 165.604 129.237,167.123 131.600,167.594 131.600 C 168.138 131.600,168.108 130.275,167.536 129.019 C 167.063 127.982,165.599 127.589,165.601 128.500 M169.807 129.442 C 169.308 130.493,169.243 131.003,169.564 131.324 C 170.183 131.943,171.113 130.936,171.441 129.295 C 171.808 127.460,170.700 127.559,169.807 129.442 M164.000 139.191 C 164.000 140.649,168.652 141.455,171.135 140.427 C 173.676 139.375,172.769 138.516,170.000 139.352 C 168.486 139.809,167.914 139.809,166.400 139.354 C 164.235 138.702,164.000 138.686,164.000 139.191 M166.800 140.114 C 167.318 140.307,167.315 140.341,166.776 140.368 C 166.434 140.386,165.804 140.120,165.376 139.778 C 164.612 139.166,164.613 139.162,165.400 139.524 C 165.840 139.726,166.470 139.992,166.800 140.114 M171.566 139.767 C 171.474 139.860,170.859 140.047,170.199 140.185 L 169.000 140.434 170.200 139.874 C 171.270 139.374,172.017 139.316,171.566 139.767 M133.900 207.612 C 134.395 207.811,134.800 208.190,134.800 208.454 C 134.800 208.718,134.916 208.818,135.057 208.676 C 135.447 208.286,134.391 207.197,133.651 207.225 C 133.210 207.243,133.291 207.368,133.900 207.612 M201.800 210.292 C 196.014 215.608,191.641 219.200,190.948 219.206 C 190.537 219.209,189.930 219.387,189.600 219.600 C 189.141 219.896,189.292 219.989,190.238 219.994 C 191.164 219.998,192.175 219.419,194.241 217.700 C 195.762 216.435,197.634 214.911,198.403 214.312 C 201.274 212.078,204.924 208.524,204.568 208.309 C 204.366 208.187,203.120 209.080,201.800 210.292 M186.800 209.020 C 186.470 209.090,185.542 209.254,184.739 209.384 C 181.654 209.886,182.529 212.000,185.820 212.000 C 187.977 212.000,189.200 211.343,189.200 210.186 C 189.200 209.716,187.928 208.699,187.526 208.846 C 187.457 208.872,187.130 208.950,186.800 209.020 M133.800 209.600 L 132.600 209.905 133.676 209.953 C 134.268 209.979,134.864 209.820,135.000 209.600 C 135.136 209.380,135.192 209.221,135.124 209.247 C 135.056 209.273,134.460 209.432,133.800 209.600 M177.043 209.947 C 173.884 210.637,174.958 212.985,178.305 212.708 C 181.054 212.480,182.088 211.603,181.011 210.412 C 180.272 209.595,179.219 209.472,177.043 209.947 M170.135 210.320 C 167.676 210.462,167.003 211.349,168.460 212.529 C 169.548 213.410,172.688 213.150,173.487 212.114 C 174.447 210.870,173.098 210.148,170.135 210.320 M188.000 210.349 C 188.000 210.773,184.905 211.312,184.369 210.981 C 184.159 210.851,184.091 210.577,184.217 210.372 C 184.508 209.901,188.000 209.879,188.000 210.349 M156.400 210.937 C 156.400 211.626,157.373 212.494,157.737 212.130 C 158.197 211.670,158.024 211.241,157.200 210.800 C 156.575 210.466,156.400 210.496,156.400 210.937 M160.641 211.000 C 160.013 211.475,159.969 211.681,160.390 212.187 C 161.127 213.076,165.133 213.041,165.478 212.142 C 166.053 210.643,162.288 209.754,160.641 211.000 M180.302 211.100 C 180.419 211.456,179.881 211.600,178.433 211.600 C 176.280 211.600,175.644 210.972,177.500 210.680 C 179.194 210.413,180.121 210.552,180.302 211.100 M172.600 211.400 C 172.600 211.620,171.745 211.855,170.700 211.922 C 168.936 212.035,168.393 211.741,169.085 211.048 C 169.509 210.625,172.600 210.934,172.600 211.400 M200.148 216.991 C 196.194 220.758,194.305 222.855,193.858 223.972 C 193.029 226.042,191.625 226.974,189.783 226.675 C 188.953 226.540,188.477 226.601,188.615 226.824 C 189.717 228.607,194.800 226.218,194.800 223.917 C 194.800 223.465,195.565 222.353,196.500 221.447 C 199.728 218.319,204.204 214.197,205.300 213.342 C 206.334 212.536,206.767 211.596,206.100 211.604 C 205.935 211.606,203.257 214.030,200.148 216.991 M211.646 221.001 C 211.504 222.235,201.526 231.764,199.746 232.367 C 198.645 232.740,197.622 233.411,197.256 234.000 C 196.666 234.953,196.686 234.949,197.699 233.900 C 198.369 233.206,199.183 232.800,199.901 232.800 C 201.498 232.800,212.211 222.621,211.898 221.400 C 211.785 220.960,211.672 220.781,211.646 221.001 M209.348 229.391 C 204.996 234.028,204.584 234.574,203.364 237.321 C 202.762 238.678,201.302 239.552,200.000 239.336 C 199.890 239.318,199.260 239.179,198.600 239.029 L 197.400 238.755 198.325 239.418 C 200.817 241.203,204.800 239.210,204.800 236.178 C 204.800 235.354,205.883 234.044,210.645 229.108 C 212.710 226.967,214.400 225.122,214.400 225.008 C 214.400 224.258,213.138 225.353,209.348 229.391 M182.732 227.487 C 183.254 227.586,184.020 228.267,184.472 229.032 C 185.370 230.555,185.890 230.907,185.163 229.500 C 184.366 227.960,183.509 227.198,182.638 227.254 C 181.886 227.303,181.896 227.327,182.732 227.487 M183.362 231.900 C 184.170 232.854,184.993 233.058,185.397 232.405 C 185.539 232.176,185.374 232.112,185.006 232.253 C 184.655 232.388,183.974 232.162,183.485 231.749 L 182.600 231.000 183.362 231.900 M220.231 234.260 C 220.095 234.667,219.243 235.810,218.338 236.800 C 213.211 242.409,211.964 243.600,211.220 243.600 C 210.776 243.600,209.906 244.095,209.287 244.700 C 208.668 245.305,208.542 245.485,209.007 245.100 C 209.471 244.715,210.272 244.400,210.786 244.400 C 212.539 244.400,221.770 234.810,220.877 233.917 C 220.614 233.654,220.396 233.770,220.231 234.260 M189.632 237.500 C 189.593 238.595,188.602 238.686,187.431 237.700 C 186.601 237.001,186.601 237.001,187.362 237.900 C 188.608 239.371,190.534 238.767,189.869 237.113 C 189.756 236.831,189.649 237.005,189.632 237.500 M221.744 238.500 C 218.996 241.446,214.800 246.898,214.799 247.526 C 214.795 248.926,213.296 250.697,211.735 251.144 L 210.200 251.584 211.999 251.417 C 214.127 251.219,215.600 249.814,215.600 247.982 C 215.600 247.150,216.152 246.185,217.500 244.664 C 218.545 243.485,220.358 241.411,221.529 240.054 C 222.717 238.678,223.849 237.707,224.091 237.856 C 224.349 238.015,224.408 237.937,224.238 237.662 C 223.760 236.888,223.015 237.138,221.744 238.500 M190.002 240.198 C 189.539 240.756,190.338 242.800,191.018 242.800 C 191.128 242.800,190.929 242.358,190.575 241.818 C 189.462 240.119,190.912 239.306,192.569 240.700 C 193.399 241.399,193.399 241.399,192.638 240.500 C 191.758 239.460,190.713 239.341,190.002 240.198 M191.778 243.918 C 192.600 244.887,194.015 244.972,194.312 244.069 C 194.456 243.634,194.341 243.630,193.666 244.052 C 192.966 244.489,192.708 244.449,191.922 243.782 L 191.000 243.000 191.778 243.918 M230.800 245.022 C 230.800 246.283,225.792 253.424,224.545 253.940 C 223.903 254.206,223.132 254.823,222.832 255.312 L 222.287 256.200 223.180 255.405 C 223.671 254.968,224.496 254.428,225.013 254.205 C 227.157 253.282,232.308 245.285,231.200 244.600 C 230.980 244.464,230.800 244.654,230.800 245.022 M195.067 245.467 C 193.910 246.623,197.331 251.017,198.710 250.148 C 199.840 249.437,199.708 248.654,198.179 246.982 L 196.731 245.400 197.966 246.991 C 200.059 249.689,198.932 251.060,196.533 248.735 C 195.081 247.328,194.778 245.769,195.900 245.476 C 196.461 245.329,196.474 245.284,195.967 245.246 C 195.618 245.221,195.213 245.320,195.067 245.467 M231.809 251.184 C 229.817 254.583,229.352 255.724,228.991 258.103 C 228.618 260.562,225.238 261.879,223.255 260.339 C 222.873 260.042,222.985 260.205,223.503 260.700 C 225.856 262.948,229.512 261.283,229.898 257.787 C 230.113 255.838,231.392 253.113,233.693 249.700 C 234.520 248.472,234.677 248.000,234.257 248.000 C 233.938 248.000,232.836 249.433,231.809 251.184 M200.267 250.667 C 199.735 251.199,200.015 251.685,200.582 251.215 C 200.903 250.949,201.381 250.864,201.644 251.027 C 201.948 251.215,202.019 251.154,201.838 250.862 C 201.524 250.354,200.684 250.249,200.267 250.667 M203.341 252.353 C 205.465 254.974,203.996 256.090,201.590 253.684 C 200.715 252.809,200.000 252.246,200.000 252.431 C 200.000 253.392,203.264 255.704,204.144 255.366 C 205.198 254.962,204.903 253.444,203.522 252.175 L 202.245 251.000 203.341 252.353 M205.600 255.963 C 205.600 256.162,205.960 256.231,206.401 256.116 C 207.437 255.845,210.000 257.770,210.000 258.820 C 210.000 260.050,208.414 259.624,206.500 257.880 C 206.005 257.429,205.600 257.247,205.600 257.476 C 205.600 258.099,208.521 260.000,209.479 260.000 C 210.362 260.000,210.915 259.138,210.568 258.300 C 209.943 256.786,205.600 254.743,205.600 255.963 M245.393 256.388 C 245.860 257.145,242.755 262.582,240.868 264.311 L 239.000 266.022 240.582 264.993 C 242.222 263.927,243.738 261.959,245.421 258.713 C 246.578 256.483,246.568 256.550,245.779 256.247 C 245.438 256.116,245.264 256.180,245.393 256.388 M247.355 261.900 C 246.258 264.185,245.853 265.565,245.815 267.151 C 245.736 270.355,243.420 271.942,240.719 270.643 L 239.400 270.008 240.344 270.804 C 243.110 273.135,246.418 271.169,246.825 266.952 C 247.052 264.595,247.762 262.521,249.513 259.100 C 249.598 258.935,249.481 258.800,249.255 258.800 C 249.028 258.800,248.174 260.195,247.355 261.900 M211.473 260.554 C 210.976 261.848,214.486 264.680,215.994 264.202 C 217.236 263.808,216.954 262.585,215.309 261.229 C 213.743 259.938,211.838 259.603,211.473 260.554 M214.653 261.233 C 216.066 262.106,216.504 263.600,215.347 263.600 C 214.227 263.600,212.000 261.982,212.000 261.167 C 212.000 260.164,212.962 260.188,214.653 261.233 M218.300 264.032 C 216.800 264.906,219.557 268.000,221.836 268.000 C 223.929 268.000,223.464 266.023,221.038 264.601 C 219.095 263.462,219.230 263.490,218.300 264.032 M220.816 265.208 C 221.856 265.739,222.400 266.288,222.400 266.808 C 222.400 267.869,221.688 267.806,219.893 266.586 C 218.410 265.578,218.155 265.178,218.667 264.667 C 219.034 264.299,219.035 264.300,220.816 265.208 M260.969 268.289 C 260.532 269.603,259.682 271.095,259.000 271.746 L 257.800 272.893 258.926 272.183 C 260.223 271.366,262.652 266.892,262.099 266.339 C 261.884 266.124,261.427 266.910,260.969 268.289 M224.408 267.987 C 223.004 268.874,227.277 272.117,228.985 271.461 C 230.297 270.958,229.695 269.317,227.874 268.436 C 225.971 267.514,225.293 267.427,224.408 267.987 M227.246 268.874 C 228.717 269.701,229.195 270.509,228.476 270.953 C 228.095 271.189,224.800 269.298,224.800 268.844 C 224.800 268.505,225.226 268.000,225.512 268.000 C 225.611 268.000,226.391 268.393,227.246 268.874 M264.994 268.500 C 263.766 271.897,263.600 272.725,263.834 274.285 C 264.307 277.440,261.517 279.588,258.702 278.235 L 257.400 277.608 258.344 278.404 C 261.136 280.757,265.089 278.325,264.643 274.528 C 264.456 272.939,264.590 271.948,265.199 270.403 C 265.639 269.285,266.000 268.287,266.000 268.185 C 266.000 267.773,265.162 268.035,264.994 268.500 M231.300 271.065 C 229.951 271.609,230.794 273.206,233.002 274.288 C 236.805 276.154,237.854 273.819,234.162 271.707 C 232.569 270.796,232.182 270.709,231.300 271.065 M233.809 272.231 C 235.402 272.987,235.951 274.000,234.768 274.000 C 233.578 274.000,231.600 272.870,231.600 272.190 C 231.600 271.435,232.152 271.445,233.809 272.231 M114.005 272.876 C 113.578 273.755,113.586 273.762,114.174 273.029 C 114.930 272.086,115.043 272.193,116.796 275.530 C 118.153 278.111,118.254 278.202,119.800 278.269 L 121.400 278.338 119.816 278.019 C 118.946 277.843,118.175 277.542,118.105 277.349 C 116.762 273.697,114.700 271.446,114.005 272.876 M112.420 275.755 C 111.801 277.114,111.302 277.651,110.493 277.829 C 108.672 278.230,108.544 278.335,109.838 278.368 C 110.550 278.387,111.337 278.102,111.690 277.700 C 112.534 276.738,113.704 274.370,113.457 274.124 C 113.346 274.013,112.880 274.747,112.420 275.755 M238.100 274.265 C 236.770 274.801,237.587 276.431,239.669 277.395 C 241.559 278.271,243.200 278.254,243.200 277.360 C 243.200 276.609,242.149 275.488,240.803 274.801 C 239.177 273.972,238.941 273.925,238.100 274.265 M240.681 275.692 C 242.007 276.275,242.494 276.866,242.031 277.329 C 241.639 277.721,238.400 276.171,238.400 275.592 C 238.400 275.059,239.334 275.099,240.681 275.692 M244.900 277.465 C 243.075 278.201,245.892 281.157,248.451 281.191 C 250.650 281.221,250.141 279.003,247.709 277.961 C 245.849 277.164,245.708 277.139,244.900 277.465 M247.664 278.832 C 248.718 279.370,249.158 279.802,248.907 280.053 C 248.384 280.576,245.200 279.291,245.200 278.557 C 245.200 277.795,245.751 277.856,247.664 278.832 M105.267 278.919 C 104.788 279.496,105.442 280.355,108.214 282.796 C 109.254 283.712,109.048 283.403,107.617 281.900 C 105.367 279.537,105.301 279.029,107.200 278.688 C 108.070 278.532,108.037 278.502,106.949 278.454 C 106.261 278.425,105.504 278.634,105.267 278.919 M122.600 278.685 C 124.221 279.075,124.134 279.581,122.069 281.765 C 119.961 283.993,119.713 284.754,120.430 286.800 C 120.689 287.539,120.728 287.324,120.577 285.975 C 120.379 284.197,120.431 284.091,122.625 281.862 C 125.046 279.402,125.116 278.346,122.851 278.446 C 122.023 278.483,121.970 278.534,122.600 278.685 M251.210 280.781 C 250.679 281.774,251.744 282.856,253.981 283.594 C 257.134 284.634,257.921 282.568,255.000 280.917 C 253.027 279.802,251.758 279.757,251.210 280.781 M255.270 282.037 C 255.851 282.349,255.962 282.598,255.656 282.904 C 255.219 283.341,252.000 282.198,252.000 281.606 C 252.000 280.742,253.128 280.891,255.270 282.037 M258.500 283.065 C 257.676 283.398,257.934 284.738,258.951 285.405 C 261.412 287.017,263.600 286.889,263.600 285.131 C 263.600 283.910,260.010 282.456,258.500 283.065 M261.192 284.243 C 262.808 284.890,263.329 285.600,262.187 285.600 C 261.203 285.600,258.800 284.479,258.800 284.020 C 258.800 283.444,259.312 283.491,261.192 284.243 M265.221 285.774 C 263.979 287.271,268.878 290.094,270.281 288.690 C 271.282 287.689,270.566 286.532,268.512 285.832 C 266.230 285.054,265.825 285.047,265.221 285.774 M109.000 286.800 C 108.848 287.491,108.814 288.147,108.924 288.257 C 109.034 288.367,109.248 287.891,109.400 287.200 C 109.552 286.509,109.586 285.853,109.476 285.743 C 109.366 285.633,109.152 286.109,109.000 286.800 M269.453 287.244 C 270.438 288.061,269.438 288.441,267.797 287.873 C 265.664 287.134,265.375 286.194,267.382 286.520 C 268.201 286.653,269.133 286.978,269.453 287.244 M272.700 287.880 C 270.590 288.418,272.813 290.764,275.746 291.095 C 278.614 291.418,278.549 288.902,275.671 288.217 C 273.619 287.728,273.396 287.703,272.700 287.880 M116.345 288.823 C 117.085 289.274,117.777 289.557,117.882 289.451 C 118.084 289.250,115.873 287.999,115.320 288.001 C 115.144 288.002,115.605 288.372,116.345 288.823 M120.800 289.443 C 120.800 290.211,120.642 290.422,120.200 290.243 C 118.483 289.548,118.208 289.491,118.600 289.913 C 119.696 291.092,121.200 290.936,121.200 289.643 C 121.200 288.960,121.110 288.400,121.000 288.400 C 120.890 288.400,120.800 288.869,120.800 289.443 M275.965 289.268 C 276.566 289.493,276.789 289.771,276.555 290.005 C 276.027 290.533,273.200 289.607,273.200 288.906 C 273.200 288.340,273.642 288.398,275.965 289.268 M110.690 289.743 C 109.378 290.488,109.130 290.521,108.796 290.000 C 108.528 289.581,108.410 289.555,108.406 289.913 C 108.395 290.830,109.489 290.873,111.161 290.020 C 112.063 289.560,112.800 289.097,112.800 288.992 C 112.800 288.662,112.252 288.857,110.690 289.743 M279.616 290.181 C 278.383 291.666,282.718 294.430,284.266 293.145 C 285.606 292.033,284.771 290.817,282.154 290.070 C 280.108 289.486,280.196 289.482,279.616 290.181 M283.586 291.829 C 284.098 292.328,284.068 292.400,283.345 292.400 C 282.127 292.400,280.000 291.584,280.000 291.116 C 280.000 290.548,282.854 291.116,283.586 291.829 M286.243 292.633 C 285.900 293.525,285.894 293.512,286.991 294.231 C 289.379 295.796,292.000 295.746,292.000 294.137 C 292.000 292.418,286.842 291.070,286.243 292.633 M289.550 293.050 C 290.605 293.261,291.411 294.405,290.500 294.398 C 289.598 294.391,287.200 293.507,287.200 293.181 C 287.200 292.737,287.814 292.703,289.550 293.050 M293.855 294.202 C 292.867 295.190,293.658 296.219,295.824 296.764 C 298.152 297.351,299.200 297.047,299.200 295.787 C 299.200 294.148,295.120 292.937,293.855 294.202 M297.100 295.052 C 298.607 295.456,298.141 296.128,296.535 295.867 C 294.740 295.576,293.776 294.797,295.220 294.805 C 295.759 294.808,296.605 294.919,297.100 295.052 M301.280 295.680 C 299.995 296.965,300.890 297.774,304.471 298.564 C 305.464 298.784,306.811 298.034,306.794 297.271 C 306.762 295.856,302.372 294.588,301.280 295.680 M304.350 296.650 C 305.057 296.791,305.600 297.151,305.600 297.477 C 305.600 297.839,305.339 297.976,304.900 297.846 C 304.515 297.732,303.705 297.520,303.100 297.376 C 300.797 296.826,301.934 296.167,304.350 296.650 M137.700 331.496 C 138.965 331.575,141.035 331.575,142.300 331.496 C 143.565 331.416,142.530 331.351,140.000 331.351 C 137.470 331.351,136.435 331.416,137.700 331.496 M96.969 349.881 C 96.731 350.056,96.011 351.181,95.369 352.379 C 89.229 363.829,75.709 365.040,62.754 355.302 C 57.502 351.354,52.034 354.048,54.466 359.385 C 55.565 361.796,67.527 368.079,74.353 369.831 C 87.413 373.182,97.433 368.365,103.618 355.763 C 106.233 350.435,106.224 350.001,103.500 349.997 C 102.345 349.995,100.500 349.896,99.400 349.777 C 98.300 349.659,97.206 349.705,96.969 349.881 " stroke="none" fill="#905712" fill-rule="evenodd"></path><path id="path2" d="M0.000 200.000 L 0.000 400.000 200.000 400.000 L 400.000 400.000 400.000 200.000 L 400.000 0.000 200.000 0.000 L 0.000 0.000 0.000 200.000 M176.200 96.736 C 179.908 98.185,182.842 100.067,185.727 102.848 L 187.773 104.819 190.042 103.610 C 199.918 98.346,209.431 110.511,202.200 119.156 C 201.017 120.571,197.991 122.399,196.822 122.406 C 195.166 122.416,194.973 122.800,194.484 127.055 C 193.213 138.133,187.263 147.133,178.507 151.222 C 175.994 152.396,176.115 150.657,177.403 167.040 C 177.954 174.058,178.522 181.300,178.664 183.133 L 178.923 186.467 180.962 184.240 C 183.001 182.013,183.492 181.796,186.185 181.938 C 187.634 182.014,191.788 186.111,194.211 189.854 C 197.051 194.239,199.371 198.066,200.824 200.760 C 204.211 207.042,204.337 207.200,205.958 207.200 C 208.234 207.200,209.397 209.474,207.800 210.800 C 206.929 211.523,206.965 211.625,209.672 216.228 C 211.562 219.439,212.293 220.367,212.772 220.164 C 215.852 218.856,217.873 221.209,215.753 223.631 C 214.904 224.601,215.055 225.095,217.055 227.898 C 220.494 232.718,221.157 233.320,222.238 232.612 C 224.700 230.999,226.770 233.040,225.287 235.618 L 224.415 237.133 227.734 240.567 C 231.200 244.152,231.583 244.384,232.400 243.400 C 234.218 241.209,236.638 243.985,235.421 246.867 C 235.123 247.573,238.005 250.195,243.072 253.828 C 245.952 255.893,246.093 255.922,246.800 254.600 C 247.906 252.534,251.125 253.611,250.674 255.896 C 250.554 256.503,250.399 257.352,250.328 257.781 C 250.178 258.694,253.520 261.085,258.491 263.622 C 262.142 265.485,262.114 265.482,262.800 264.200 C 264.065 261.837,266.945 263.211,266.730 266.074 L 266.600 267.796 270.400 269.659 C 279.554 274.146,288.941 277.044,306.600 280.833 C 307.480 281.022,308.728 281.326,309.372 281.510 L 310.545 281.843 310.572 288.421 C 310.619 299.502,310.423 301.579,309.307 301.859 C 305.620 302.785,279.290 301.440,273.094 300.010 C 269.993 299.295,270.200 298.831,270.200 306.500 C 270.200 310.295,270.110 314.930,270.000 316.800 L 269.800 320.200 270.800 320.069 C 272.523 319.843,289.910 313.810,296.400 311.187 C 306.112 307.261,310.570 304.552,310.864 302.400 C 310.996 301.432,311.120 301.393,314.800 301.178 C 323.455 300.672,351.200 289.229,351.200 286.164 C 351.200 285.384,352.412 285.473,353.534 286.336 C 354.652 287.196,354.609 289.078,353.456 289.760 C 353.046 290.002,352.039 290.875,351.218 291.700 C 350.397 292.525,349.427 293.200,349.062 293.200 C 348.698 293.200,348.400 293.380,348.400 293.600 C 348.400 293.820,348.083 294.000,347.696 294.000 C 347.309 294.000,346.792 294.322,346.546 294.715 C 345.894 295.758,339.517 298.800,337.981 298.800 C 337.552 298.800,337.199 298.935,337.197 299.100 C 337.193 299.459,335.256 300.400,334.520 300.400 C 334.234 300.400,334.000 300.580,334.000 300.800 C 334.000 301.020,333.460 301.200,332.800 301.200 C 332.140 301.200,331.600 301.380,331.600 301.600 C 331.600 301.820,331.251 302.000,330.824 302.000 C 330.397 302.000,329.936 302.180,329.800 302.400 C 329.664 302.620,329.135 302.800,328.625 302.800 C 326.606 302.800,326.622 303.813,328.674 305.914 C 329.733 306.998,330.974 308.586,331.430 309.443 C 333.859 314.000,334.000 314.313,334.000 315.171 C 334.000 315.601,334.180 316.064,334.400 316.200 C 335.368 316.798,334.873 324.734,333.825 325.421 C 332.668 326.179,325.959 327.888,322.700 328.255 C 320.443 328.509,319.309 327.521,320.800 326.600 C 321.020 326.464,321.200 325.924,321.200 325.400 C 321.200 324.876,321.380 324.336,321.600 324.200 C 321.820 324.064,322.000 322.984,322.000 321.800 C 322.000 320.616,321.820 319.536,321.600 319.400 C 321.380 319.264,321.200 318.591,321.200 317.905 C 321.200 316.139,319.690 311.600,319.102 311.600 C 318.936 311.600,318.800 311.354,318.800 311.054 C 318.800 310.754,317.821 309.474,316.625 308.209 L 314.451 305.909 313.125 306.844 C 312.396 307.358,311.451 308.098,311.025 308.489 C 310.598 308.880,310.053 309.200,309.813 309.200 C 309.573 309.200,309.117 309.560,308.800 310.000 C 308.483 310.440,307.969 310.800,307.659 310.800 C 307.348 310.800,306.803 311.115,306.447 311.500 C 305.581 312.437,302.517 314.000,301.545 314.000 C 301.117 314.000,300.380 314.360,299.908 314.800 C 299.436 315.240,298.633 315.600,298.125 315.600 C 297.616 315.600,297.200 315.780,297.200 316.000 C 297.200 316.220,296.840 316.400,296.400 316.400 C 295.960 316.400,295.600 316.580,295.600 316.800 C 295.600 317.020,295.328 317.200,294.995 317.200 C 294.662 317.200,294.032 317.380,293.595 317.600 C 293.158 317.820,292.442 318.180,292.005 318.400 C 291.568 318.620,290.679 318.800,290.029 318.800 C 289.379 318.800,288.736 318.980,288.600 319.200 C 288.464 319.420,287.823 319.600,287.176 319.600 C 286.529 319.600,286.000 319.780,286.000 320.000 C 286.000 320.220,285.651 320.400,285.224 320.400 C 284.797 320.400,284.336 320.580,284.200 320.800 C 284.064 321.020,283.524 321.200,283.000 321.200 C 282.476 321.200,281.936 321.380,281.800 321.600 C 281.664 321.820,281.124 322.000,280.600 322.000 C 280.076 322.000,279.536 322.180,279.400 322.400 C 279.264 322.620,278.724 322.800,278.200 322.800 C 277.676 322.800,277.136 322.980,277.000 323.200 C 276.864 323.420,276.234 323.600,275.600 323.600 C 274.966 323.600,274.336 323.780,274.200 324.000 C 274.064 324.220,273.063 324.400,271.976 324.400 C 270.889 324.400,270.000 324.580,270.000 324.800 C 270.000 325.020,269.460 325.200,268.800 325.200 C 268.140 325.200,267.600 325.380,267.600 325.600 C 267.600 325.820,266.880 326.000,266.000 326.000 C 265.120 326.000,264.400 326.180,264.400 326.400 C 264.400 326.620,263.871 326.800,263.224 326.800 C 262.577 326.800,261.936 326.980,261.800 327.200 C 261.664 327.420,260.674 327.600,259.600 327.600 C 258.526 327.600,257.536 327.780,257.400 328.000 C 257.264 328.220,256.029 328.400,254.656 328.400 C 253.283 328.400,251.989 328.564,251.780 328.764 C 251.571 328.964,246.630 329.235,240.800 329.366 C 230.041 329.607,228.410 329.670,214.200 330.387 C 209.800 330.609,199.270 330.979,190.800 331.210 C 133.326 332.776,117.534 332.495,100.000 329.595 C 98.790 329.395,96.270 329.023,94.400 328.769 C 91.377 328.359,79.708 326.094,76.000 325.198 C 67.408 323.122,68.064 323.705,68.257 318.306 C 68.943 299.218,69.712 294.308,74.597 277.800 C 77.996 266.316,79.105 261.563,80.993 250.400 C 84.135 231.824,84.166 231.549,83.666 226.800 C 83.279 223.123,83.321 222.052,83.999 218.200 C 84.641 214.561,84.777 211.863,84.787 202.600 C 84.794 196.440,84.984 189.870,85.209 188.000 C 85.946 181.890,86.473 178.225,86.820 176.800 C 89.317 166.536,91.026 161.658,94.191 155.773 C 102.277 140.731,117.184 129.933,133.600 127.227 C 139.906 126.187,139.369 126.493,139.630 123.787 C 139.913 120.847,139.817 120.554,138.420 120.067 C 135.430 119.024,132.800 114.689,132.800 110.800 C 132.800 103.335,140.175 98.497,146.814 101.606 L 148.706 102.493 150.832 100.812 C 157.913 95.216,168.113 93.577,176.200 96.736 M109.375 263.793 C 92.126 269.241,89.653 292.750,105.487 300.743 C 125.507 310.849,144.522 286.558,129.782 269.709 C 125.121 264.380,115.941 261.718,109.375 263.793 M117.525 271.027 C 118.714 273.432,119.749 275.465,119.822 275.545 C 119.938 275.670,121.520 275.947,128.286 277.026 C 130.448 277.371,130.231 277.952,126.565 281.635 L 123.031 285.185 123.741 290.047 C 124.651 296.272,124.705 296.231,119.304 293.383 L 114.936 291.079 110.455 293.407 C 105.017 296.233,104.968 296.209,105.786 291.167 C 106.790 284.978,106.884 285.300,102.915 281.418 C 98.509 277.110,98.309 277.330,107.794 276.066 L 109.787 275.800 112.157 271.088 C 114.967 265.498,114.790 265.500,117.525 271.027 M75.800 330.203 C 78.660 330.523,83.257 331.056,86.016 331.387 C 106.678 333.866,115.815 334.538,143.039 335.582 C 156.246 336.088,190.191 336.097,204.000 335.597 C 209.610 335.394,218.835 335.102,224.500 334.950 L 234.800 334.672 234.800 337.111 L 234.800 339.550 230.500 339.716 C 228.135 339.807,220.530 340.134,213.600 340.441 C 197.062 341.175,148.299 341.197,134.800 340.477 C 107.583 339.025,91.360 337.656,77.000 335.600 C 75.680 335.411,73.181 335.070,71.446 334.842 C 67.733 334.353,66.800 333.706,66.800 331.618 C 66.800 329.681,67.447 329.078,69.200 329.380 C 69.970 329.513,72.940 329.883,75.800 330.203 M106.601 349.602 C 107.186 350.548,104.058 357.232,101.181 361.187 C 92.699 372.850,80.460 374.626,64.200 366.554 C 54.767 361.871,52.460 359.509,53.686 355.790 C 54.971 351.890,58.205 351.471,62.812 354.608 C 77.449 364.575,88.769 363.424,95.091 351.325 L 96.200 349.202 101.276 349.201 C 104.250 349.200,106.456 349.367,106.601 349.602 " stroke="none" fill="#fafafa" fill-rule="evenodd"></path><path id="path3" d="M160.393 95.927 C 157.471 96.744,155.729 97.567,156.876 97.588 C 157.248 97.595,157.645 97.451,157.758 97.268 C 158.897 95.425,171.518 95.281,176.022 97.060 C 188.909 102.151,195.567 114.110,193.915 129.200 C 193.718 131.003,193.740 131.371,193.988 130.400 C 194.185 129.630,194.471 127.650,194.625 126.000 C 194.920 122.835,195.176 122.416,196.822 122.406 C 197.991 122.399,201.017 120.571,202.200 119.156 C 209.431 110.511,199.918 98.346,190.042 103.610 L 187.773 104.819 185.727 102.848 C 178.945 96.311,168.863 93.556,160.393 95.927 M154.001 98.638 C 153.011 99.204,151.421 100.306,150.468 101.087 L 148.735 102.506 146.828 101.613 C 136.465 96.760,127.810 110.405,136.130 118.479 C 136.991 119.316,137.932 120.000,138.220 120.000 C 138.507 120.000,139.026 120.283,139.371 120.629 C 139.943 121.200,140.000 121.184,140.000 120.448 C 140.000 113.402,146.802 103.072,154.144 98.969 C 155.165 98.398,156.000 97.857,156.000 97.766 C 156.000 97.507,155.912 97.546,154.001 98.638 M144.300 103.052 C 146.449 103.628,145.332 104.728,142.666 104.662 C 137.265 104.529,134.262 109.399,136.876 114.050 C 137.867 115.813,137.438 117.028,136.191 115.992 C 130.428 111.210,136.800 101.042,144.300 103.052 M198.968 105.939 C 203.006 108.663,203.638 117.186,199.858 117.929 C 199.145 118.069,198.932 116.849,199.552 116.180 C 202.937 112.522,199.164 106.114,193.875 106.539 C 191.244 106.750,191.154 106.727,191.275 105.881 C 191.530 104.097,196.289 104.132,198.968 105.939 M154.166 112.187 C 148.417 115.634,148.742 121.725,154.975 127.331 C 158.712 130.692,159.070 131.370,159.821 136.501 C 160.769 142.982,161.732 144.822,164.975 146.346 C 170.876 149.120,176.294 145.338,176.930 138.000 C 177.432 132.218,177.905 131.438,182.996 128.003 C 189.392 123.687,190.529 118.465,186.042 114.022 C 182.973 110.984,179.352 110.791,173.800 113.368 C 170.990 114.672,168.537 114.654,165.600 113.308 C 161.657 111.501,160.607 111.200,158.251 111.204 C 156.366 111.207,155.422 111.434,154.166 112.187 M161.171 119.054 C 162.260 120.438,162.218 121.419,161.018 122.618 C 158.439 125.198,154.579 121.914,156.829 119.054 C 157.430 118.290,158.027 118.000,159.000 118.000 C 159.973 118.000,160.570 118.290,161.171 119.054 M179.669 118.662 C 180.748 119.639,180.655 122.176,179.511 122.977 C 178.220 123.881,176.907 123.743,175.744 122.580 C 173.313 120.150,177.117 116.353,179.669 118.662 M139.584 123.987 C 139.376 126.454,139.919 126.152,133.800 127.203 C 130.731 127.730,125.105 129.239,125.339 129.473 C 125.420 129.553,126.547 129.331,127.843 128.979 C 131.763 127.915,135.133 127.240,137.022 127.143 C 139.421 127.018,140.087 126.234,139.908 123.742 L 139.769 121.800 139.584 123.987 M167.727 129.121 C 168.491 130.429,168.327 132.170,167.466 131.895 C 166.698 131.649,165.440 128.993,165.732 128.232 C 166.098 127.280,166.846 127.614,167.727 129.121 M171.554 127.963 C 172.246 128.401,171.908 129.936,170.831 131.249 C 169.422 132.968,168.459 131.437,169.574 129.251 C 170.458 127.519,170.653 127.392,171.554 127.963 M121.158 130.938 C 113.088 134.461,105.183 140.382,100.261 146.590 C 99.567 147.464,100.980 146.190,103.400 143.759 C 109.571 137.558,120.441 130.400,123.685 130.400 C 124.052 130.400,124.464 130.220,124.600 130.000 C 124.995 129.361,124.394 129.525,121.158 130.938 M193.073 132.553 C 192.923 132.945,192.811 133.566,192.825 133.933 C 192.842 134.375,192.981 134.274,193.237 133.634 C 193.449 133.103,193.561 132.482,193.485 132.254 C 193.409 132.027,193.224 132.161,193.073 132.553 M192.176 135.443 C 192.043 135.859,191.584 136.900,191.157 137.757 C 190.730 138.613,190.472 139.405,190.584 139.518 C 190.697 139.630,191.260 138.693,191.835 137.435 C 192.411 136.178,192.778 135.045,192.650 134.917 C 192.523 134.790,192.310 135.026,192.176 135.443 M168.766 139.061 C 169.775 138.936,171.095 138.715,171.700 138.570 C 173.744 138.081,173.158 139.875,170.967 140.814 C 168.284 141.964,165.462 141.562,164.019 139.823 C 163.058 138.665,164.199 137.875,165.706 138.655 C 166.555 139.094,167.497 139.219,168.766 139.061 M189.110 141.506 C 187.439 144.031,184.101 147.452,181.980 148.813 C 180.874 149.522,180.052 150.186,180.154 150.287 C 180.813 150.946,188.043 144.107,189.723 141.235 C 190.735 139.505,190.310 139.692,189.110 141.506 M98.356 149.100 C 97.491 150.166,96.186 152.095,95.651 153.100 C 94.722 154.845,95.504 153.968,97.345 151.200 C 99.127 148.519,99.564 147.611,98.356 149.100 M176.124 154.200 C 176.126 155.520,176.201 156.012,176.290 155.293 C 176.379 154.574,176.377 153.494,176.286 152.893 C 176.195 152.292,176.122 152.880,176.124 154.200 M94.200 155.600 C 93.859 156.260,93.669 156.800,93.779 156.800 C 93.889 156.800,94.259 156.260,94.600 155.600 C 94.941 154.940,95.131 154.400,95.021 154.400 C 94.911 154.400,94.541 154.940,94.200 155.600 M176.501 158.200 C 176.505 159.080,176.587 159.393,176.683 158.895 C 176.779 158.398,176.775 157.678,176.675 157.295 C 176.575 156.913,176.496 157.320,176.501 158.200 M176.931 164.200 C 176.933 165.740,177.005 166.321,177.092 165.491 C 177.179 164.661,177.177 163.401,177.089 162.691 C 177.000 161.981,176.929 162.660,176.931 164.200 M89.029 167.829 C 88.881 168.415,88.851 168.984,88.961 169.094 C 89.071 169.204,89.281 168.815,89.429 168.229 C 89.576 167.642,89.606 167.073,89.496 166.963 C 89.386 166.853,89.176 167.242,89.029 167.829 M177.293 168.400 C 177.293 169.170,177.375 169.485,177.476 169.100 C 177.576 168.715,177.576 168.085,177.476 167.700 C 177.375 167.315,177.293 167.630,177.293 168.400 M88.229 170.629 C 88.081 171.215,88.038 171.772,88.132 171.866 C 88.227 171.960,88.424 171.558,88.571 170.971 C 88.719 170.385,88.762 169.828,88.668 169.734 C 88.573 169.640,88.376 170.042,88.229 170.629 M177.731 174.600 C 177.733 176.140,177.805 176.721,177.892 175.891 C 177.979 175.061,177.977 173.801,177.889 173.091 C 177.800 172.381,177.729 173.060,177.731 174.600 M87.429 173.829 C 87.281 174.415,87.238 174.972,87.332 175.066 C 87.427 175.160,87.624 174.758,87.771 174.171 C 87.919 173.585,87.962 173.028,87.868 172.934 C 87.773 172.840,87.576 173.242,87.429 173.829 M86.600 177.600 C 86.448 178.291,86.414 178.947,86.524 179.057 C 86.634 179.167,86.848 178.691,87.000 178.000 C 87.152 177.309,87.186 176.653,87.076 176.543 C 86.966 176.433,86.752 176.909,86.600 177.600 M178.093 178.800 C 178.093 179.570,178.175 179.885,178.276 179.500 C 178.376 179.115,178.376 178.485,178.276 178.100 C 178.175 177.715,178.093 178.030,178.093 178.800 M85.785 182.585 C 85.630 183.823,85.593 184.927,85.703 185.037 C 85.813 185.147,86.030 184.223,86.185 182.985 C 86.339 181.746,86.376 180.643,86.266 180.533 C 86.156 180.423,85.939 181.346,85.785 182.585 M178.476 184.300 C 178.398 186.870,178.693 187.322,179.651 186.100 C 180.145 185.470,180.132 185.453,179.521 185.932 C 178.902 186.416,178.829 186.258,178.697 184.132 L 178.551 181.800 178.476 184.300 M85.060 189.290 C 84.921 190.451,84.831 192.750,84.861 194.400 C 84.906 196.917,84.969 196.599,85.250 192.426 C 85.599 187.260,85.500 185.629,85.060 189.290 M124.000 206.210 C 124.000 206.895,125.853 207.742,126.669 207.429 C 127.492 207.113,127.300 206.574,126.181 206.064 C 124.788 205.429,124.000 205.482,124.000 206.210 M130.214 207.577 C 129.791 208.262,130.269 208.659,132.158 209.188 C 133.903 209.677,134.800 209.534,134.800 208.766 C 134.800 207.989,130.629 206.906,130.214 207.577 M204.511 207.982 C 204.719 208.776,204.724 208.771,194.800 217.389 C 192.512 219.376,191.508 219.994,190.570 219.997 C 187.754 220.004,186.316 223.578,188.322 225.584 C 190.377 227.638,192.555 226.974,193.926 223.874 C 194.793 221.913,205.256 211.757,206.296 211.866 C 207.796 212.023,209.044 208.804,207.920 207.680 C 207.054 206.814,204.270 207.060,204.511 207.982 M84.937 210.600 C 84.939 212.360,85.009 213.030,85.093 212.089 C 85.178 211.149,85.177 209.709,85.091 208.889 C 85.005 208.070,84.936 208.840,84.937 210.600 M184.217 210.372 C 184.091 210.577,184.159 210.851,184.369 210.981 C 184.905 211.312,188.000 210.773,188.000 210.349 C 188.000 209.879,184.508 209.901,184.217 210.372 M177.500 210.680 C 175.644 210.972,176.280 211.600,178.433 211.600 C 179.881 211.600,180.419 211.456,180.302 211.100 C 180.121 210.552,179.194 210.413,177.500 210.680 M169.085 211.048 C 168.393 211.741,168.936 212.035,170.700 211.922 C 171.745 211.855,172.600 211.620,172.600 211.400 C 172.600 210.934,169.509 210.625,169.085 211.048 M175.600 215.186 C 175.600 216.331,176.864 218.800,177.450 218.800 C 178.366 218.800,178.411 218.093,177.615 216.236 C 176.813 214.363,175.600 213.732,175.600 215.186 M212.900 220.088 C 212.385 220.336,212.000 220.886,212.000 221.372 C 212.000 222.633,201.668 232.797,200.375 232.809 C 197.771 232.833,196.332 236.150,198.059 238.149 C 199.696 240.045,202.343 239.624,203.372 237.304 C 204.583 234.576,205.001 234.023,209.378 229.359 C 212.587 225.941,213.909 224.788,214.458 224.931 C 214.866 225.038,215.200 224.931,215.200 224.694 C 215.200 224.457,215.449 223.979,215.753 223.631 C 217.810 221.280,215.746 218.716,212.900 220.088 M179.004 221.653 C 178.470 223.026,180.602 226.331,181.465 225.468 C 181.879 225.054,181.216 223.264,180.226 222.119 C 179.411 221.176,179.219 221.103,179.004 221.653 M83.701 226.600 C 83.705 227.480,83.787 227.793,83.883 227.295 C 83.979 226.798,83.975 226.078,83.875 225.695 C 83.775 225.313,83.696 225.720,83.701 226.600 M182.401 228.700 C 182.403 229.602,183.861 232.000,184.407 232.000 C 185.254 232.000,185.254 230.782,184.406 229.410 C 183.482 227.915,182.399 227.531,182.401 228.700 M220.593 232.914 C 221.563 234.420,221.366 234.744,216.316 239.968 C 213.236 243.153,211.765 244.400,211.085 244.400 C 209.065 244.400,207.581 247.229,208.584 249.168 C 210.259 252.409,213.694 251.545,214.819 247.600 C 215.291 245.945,222.287 237.471,223.351 237.266 C 223.751 237.189,224.646 237.634,225.340 238.255 L 226.600 239.383 225.526 238.226 L 224.451 237.069 225.305 235.586 C 226.754 233.068,224.502 230.889,222.228 232.610 C 221.544 233.127,221.366 233.114,220.666 232.497 C 219.884 231.807,219.884 231.811,220.593 232.914 M186.207 234.388 C 185.898 234.889,186.881 236.787,187.951 237.755 C 189.655 239.298,189.431 236.699,187.687 234.700 C 186.999 233.911,186.559 233.819,186.207 234.388 M190.552 240.580 C 190.288 241.269,192.262 244.000,193.024 244.000 C 194.045 244.000,193.974 243.285,192.790 241.650 C 191.532 239.912,190.921 239.620,190.552 240.580 M232.306 243.466 C 231.730 244.042,231.543 244.056,230.920 243.573 C 230.231 243.038,230.230 243.049,230.900 243.838 C 231.968 245.096,231.767 245.905,229.681 248.767 C 228.625 250.215,227.420 251.977,227.004 252.683 C 226.588 253.389,225.736 254.178,225.110 254.437 C 222.727 255.425,221.785 257.744,223.040 259.536 C 225.097 262.472,229.200 260.688,229.200 256.859 C 229.200 255.598,233.144 248.487,234.159 247.919 C 234.627 247.657,235.055 247.704,235.521 248.068 C 236.126 248.542,236.143 248.527,235.672 247.926 C 235.280 247.425,235.255 247.045,235.572 246.452 C 236.886 243.997,234.216 241.556,232.306 243.466 M195.200 246.386 C 195.200 246.598,195.759 247.408,196.441 248.186 C 198.545 250.582,199.814 249.666,197.764 247.231 C 196.786 246.068,195.200 245.546,195.200 246.386 M200.579 251.635 C 200.267 252.139,202.705 254.800,203.478 254.800 C 204.381 254.800,204.046 253.394,202.878 252.275 C 201.677 251.124,201.009 250.938,200.579 251.635 M246.800 254.600 C 246.506 255.150,246.093 255.600,245.883 255.600 C 245.674 255.600,245.720 255.863,245.987 256.184 C 246.506 256.810,242.781 264.400,241.955 264.400 C 239.809 264.400,238.880 268.571,240.658 270.219 C 242.941 272.335,246.497 269.973,245.801 266.803 C 245.397 264.967,248.624 258.673,249.848 258.907 C 250.600 259.051,250.714 258.978,250.376 258.571 C 250.069 258.201,250.068 257.820,250.372 257.252 C 250.940 256.191,250.915 254.675,250.320 254.080 C 249.436 253.196,247.390 253.498,246.800 254.600 M206.267 256.267 C 205.679 256.854,206.076 257.544,207.615 258.610 C 210.000 260.263,210.827 259.325,208.706 257.374 C 207.195 255.985,206.751 255.783,206.267 256.267 M212.267 260.667 C 211.641 261.292,212.103 262.036,213.584 262.792 C 215.463 263.751,216.000 263.801,216.000 263.020 C 216.000 261.923,212.940 259.994,212.267 260.667 M262.800 264.200 C 262.506 264.750,262.109 265.200,261.918 265.200 C 261.728 265.200,261.749 265.532,261.967 265.938 C 262.497 266.929,260.781 271.182,259.522 271.997 C 255.746 274.441,257.740 279.922,261.790 278.230 C 263.544 277.497,264.141 276.333,263.829 274.254 C 263.509 272.118,264.731 268.312,265.835 268.010 C 266.753 267.758,267.148 264.701,266.381 263.777 C 265.566 262.795,263.416 263.049,262.800 264.200 M218.667 264.667 C 218.155 265.178,218.410 265.578,219.893 266.586 C 221.688 267.806,222.400 267.869,222.400 266.808 C 222.400 265.806,219.303 264.030,218.667 264.667 M225.067 268.267 C 224.542 268.791,224.824 269.169,226.476 270.154 C 228.159 271.158,228.800 271.184,228.800 270.250 C 228.800 269.448,225.591 267.743,225.067 268.267 M231.600 272.190 C 231.600 272.870,233.578 274.000,234.768 274.000 C 235.951 274.000,235.402 272.987,233.809 272.231 C 232.152 271.445,231.600 271.435,231.600 272.190 M114.379 273.222 C 114.087 273.760,113.387 275.096,112.824 276.191 L 111.800 278.181 109.116 278.607 C 105.567 279.171,105.542 279.239,107.957 281.792 C 110.206 284.170,110.225 284.271,109.178 288.362 C 108.652 290.419,108.981 290.488,112.029 288.958 L 114.831 287.552 117.621 288.837 C 120.851 290.326,120.963 290.291,120.424 287.953 C 119.665 284.662,119.842 283.975,122.039 281.668 C 124.424 279.164,124.490 279.330,120.833 278.633 C 119.247 278.331,117.893 278.020,117.822 277.942 C 117.752 277.864,117.068 276.550,116.303 275.022 C 114.934 272.291,114.902 272.261,114.379 273.222 M238.400 275.592 C 238.400 276.171,241.639 277.721,242.031 277.329 C 242.494 276.866,242.007 276.275,240.681 275.692 C 239.334 275.099,238.400 275.059,238.400 275.592 M245.200 278.557 C 245.200 279.291,248.384 280.576,248.907 280.053 C 249.158 279.802,248.718 279.370,247.664 278.832 C 245.751 277.856,245.200 277.795,245.200 278.557 M252.241 281.092 C 251.752 281.581,252.037 281.895,253.613 282.606 C 255.395 283.409,256.881 282.899,255.270 282.037 C 253.817 281.260,252.488 280.845,252.241 281.092 M258.800 284.020 C 258.800 284.479,261.203 285.600,262.187 285.600 C 263.329 285.600,262.808 284.890,261.192 284.243 C 259.312 283.491,258.800 283.444,258.800 284.020 M310.553 290.200 C 310.553 292.840,310.618 293.868,310.697 292.484 C 310.775 291.101,310.774 288.941,310.695 287.684 C 310.616 286.428,310.552 287.560,310.553 290.200 M266.069 286.806 C 266.297 287.490,269.244 288.516,269.692 288.068 C 270.204 287.556,269.066 286.793,267.382 286.520 C 266.250 286.336,265.935 286.405,266.069 286.806 M352.800 289.540 C 352.030 290.277,350.435 291.531,349.257 292.326 C 348.036 293.148,347.339 293.846,347.637 293.946 C 347.924 294.041,348.229 293.913,348.313 293.660 C 348.398 293.407,348.750 293.200,349.096 293.200 C 349.442 293.200,350.431 292.480,351.293 291.600 C 352.156 290.720,353.006 290.000,353.182 290.000 C 353.637 290.000,354.502 288.888,354.338 288.513 C 354.262 288.341,353.570 288.803,352.800 289.540 M273.200 288.906 C 273.200 289.607,276.027 290.533,276.555 290.005 C 276.916 289.644,276.356 289.329,274.100 288.626 C 273.462 288.428,273.200 288.509,273.200 288.906 M280.000 291.116 C 280.000 291.584,282.127 292.400,283.345 292.400 C 284.068 292.400,284.098 292.328,283.586 291.829 C 282.854 291.116,280.000 290.548,280.000 291.116 M287.200 293.181 C 287.200 293.507,289.598 294.391,290.500 294.398 C 291.411 294.405,290.605 293.261,289.550 293.050 C 287.814 292.703,287.200 292.737,287.200 293.181 M344.824 295.217 C 343.847 295.831,341.800 296.836,340.275 297.450 C 338.749 298.065,337.712 298.637,337.971 298.724 C 339.253 299.151,347.527 294.929,346.757 294.240 C 346.671 294.163,345.801 294.602,344.824 295.217 M294.655 295.215 C 295.241 295.801,298.000 296.201,298.000 295.699 C 298.000 295.239,296.677 294.814,295.220 294.805 C 294.544 294.802,294.368 294.928,294.655 295.215 M302.000 296.757 C 302.000 296.953,302.495 297.231,303.100 297.376 C 303.705 297.520,304.515 297.732,304.900 297.846 C 305.339 297.976,305.600 297.839,305.600 297.477 C 305.600 297.151,305.057 296.791,304.350 296.650 C 302.637 296.307,302.000 296.336,302.000 296.757 M335.200 299.585 C 334.061 300.153,327.299 302.515,325.300 303.043 C 324.453 303.267,324.754 303.747,326.628 305.159 C 331.541 308.861,335.712 319.661,334.059 324.403 C 333.668 325.526,333.686 325.626,334.205 325.196 C 334.907 324.613,335.080 316.620,334.400 316.200 C 334.180 316.064,334.000 315.601,334.000 315.171 C 334.000 314.313,333.859 314.000,331.430 309.443 C 330.974 308.586,329.733 306.998,328.674 305.914 C 326.622 303.813,326.606 302.800,328.625 302.800 C 329.135 302.800,329.664 302.620,329.800 302.400 C 329.936 302.180,330.397 302.000,330.824 302.000 C 331.251 302.000,331.600 301.820,331.600 301.600 C 331.600 301.380,332.140 301.200,332.800 301.200 C 333.460 301.200,334.000 301.020,334.000 300.800 C 334.000 300.580,334.234 300.400,334.520 300.400 C 335.256 300.400,337.193 299.459,337.197 299.100 C 337.201 298.685,336.821 298.777,335.200 299.585 M311.067 301.467 C 310.920 301.613,310.800 302.094,310.800 302.535 C 310.800 302.976,310.485 303.711,310.100 304.169 C 309.401 304.999,309.401 304.999,310.300 304.238 C 310.795 303.819,311.200 303.062,311.200 302.556 C 311.200 301.692,311.380 301.626,314.100 301.497 L 317.000 301.359 314.167 301.279 C 312.608 301.236,311.213 301.320,311.067 301.467 M287.500 301.882 C 287.995 301.978,288.805 301.978,289.300 301.882 C 289.795 301.787,289.390 301.709,288.400 301.709 C 287.410 301.709,287.005 301.787,287.500 301.882 M312.400 306.441 C 309.870 308.626,305.869 311.344,303.212 312.682 C 301.607 313.490,300.932 313.998,301.462 313.999 C 302.501 314.000,305.548 312.473,306.447 311.500 C 306.803 311.115,307.348 310.800,307.659 310.800 C 307.969 310.800,308.483 310.440,308.800 310.000 C 309.117 309.560,309.573 309.200,309.813 309.200 C 310.053 309.200,310.598 308.880,311.025 308.489 C 311.451 308.098,312.396 307.358,313.125 306.844 L 314.451 305.909 316.625 308.209 C 317.821 309.474,318.800 310.754,318.800 311.054 C 318.800 311.354,318.936 311.600,319.102 311.600 C 319.690 311.600,321.200 316.139,321.200 317.905 C 321.200 318.591,321.380 319.264,321.600 319.400 C 321.820 319.536,322.000 320.616,322.000 321.800 C 322.000 322.984,321.820 324.064,321.600 324.200 C 321.380 324.336,321.200 324.876,321.200 325.400 C 321.200 325.924,321.020 326.464,320.800 326.600 C 319.618 327.330,320.417 328.399,322.100 328.340 C 323.368 328.295,323.510 328.237,322.659 328.110 C 321.638 327.957,321.549 327.827,321.812 326.869 C 323.821 319.543,320.317 308.446,315.151 305.775 C 313.788 305.070,314.066 305.003,312.400 306.441 M68.555 315.000 C 68.556 317.860,68.620 318.978,68.697 317.483 C 68.774 315.989,68.774 313.649,68.696 312.283 C 68.618 310.918,68.555 312.140,68.555 315.000 M298.800 314.819 C 297.769 315.369,297.611 315.568,298.200 315.571 C 299.011 315.575,300.685 314.549,300.371 314.240 C 300.277 314.148,299.570 314.409,298.800 314.819 M269.701 317.000 C 269.705 317.880,269.787 318.193,269.883 317.695 C 269.979 317.198,269.975 316.478,269.875 316.095 C 269.775 315.713,269.696 316.120,269.701 317.000 M295.600 316.173 C 295.050 316.470,292.710 317.317,290.400 318.055 C 287.681 318.923,286.534 319.444,287.146 319.532 C 287.667 319.607,288.288 319.472,288.526 319.234 C 288.765 318.995,289.466 318.800,290.085 318.800 C 291.168 318.800,291.524 318.681,293.495 317.662 C 293.987 317.408,294.662 317.200,294.995 317.200 C 295.328 317.200,295.600 317.020,295.600 316.800 C 295.600 316.580,295.960 316.400,296.400 316.400 C 296.840 316.400,297.200 316.220,297.200 316.000 C 297.200 315.474,296.815 315.516,295.600 316.173 M283.600 320.356 C 282.610 320.731,279.730 321.635,277.200 322.366 C 271.096 324.130,270.604 324.339,272.476 324.373 C 273.288 324.388,274.064 324.220,274.200 324.000 C 274.336 323.780,274.966 323.600,275.600 323.600 C 276.234 323.600,276.864 323.420,277.000 323.200 C 277.136 322.980,277.676 322.800,278.200 322.800 C 278.724 322.800,279.264 322.620,279.400 322.400 C 279.536 322.180,280.076 322.000,280.600 322.000 C 281.124 322.000,281.664 321.820,281.800 321.600 C 281.936 321.380,282.476 321.200,283.000 321.200 C 283.524 321.200,284.064 321.020,284.200 320.800 C 284.336 320.580,284.797 320.400,285.224 320.400 C 285.651 320.400,286.000 320.220,286.000 320.000 C 286.000 319.495,285.801 319.524,283.600 320.356 M268.800 324.800 C 268.315 325.114,268.372 325.189,269.100 325.194 C 269.595 325.197,270.000 325.020,270.000 324.800 C 270.000 324.299,269.576 324.299,268.800 324.800 M266.000 325.600 C 265.532 325.902,265.643 325.989,266.500 325.994 C 267.105 325.997,267.600 325.820,267.600 325.600 C 267.600 325.094,266.783 325.094,266.000 325.600 M260.400 326.838 C 258.530 327.239,254.840 327.768,252.200 328.015 C 240.915 329.069,240.824 329.087,246.476 329.147 C 249.489 329.178,251.653 329.037,251.800 328.800 C 251.936 328.580,253.196 328.400,254.600 328.400 C 256.004 328.400,257.264 328.220,257.400 328.000 C 257.536 327.780,258.526 327.600,259.600 327.600 C 260.674 327.600,261.664 327.420,261.800 327.200 C 261.936 326.980,262.577 326.800,263.224 326.800 C 263.871 326.800,264.400 326.620,264.400 326.400 C 264.400 326.180,264.265 326.025,264.100 326.055 C 263.935 326.085,262.270 326.438,260.400 326.838 M328.400 326.800 C 327.596 327.057,327.557 327.123,328.200 327.132 C 328.640 327.138,329.360 326.989,329.800 326.800 C 330.819 326.362,329.768 326.362,328.400 326.800 M230.900 329.476 C 231.285 329.576,231.915 329.576,232.300 329.476 C 232.685 329.375,232.370 329.293,231.600 329.293 C 230.830 329.293,230.515 329.375,230.900 329.476 M223.700 329.894 C 224.745 329.976,226.455 329.976,227.500 329.894 C 228.545 329.812,227.690 329.744,225.600 329.744 C 223.510 329.744,222.655 329.812,223.700 329.894 M66.909 331.600 C 66.909 332.590,66.987 332.995,67.082 332.500 C 67.178 332.005,67.178 331.195,67.082 330.700 C 66.987 330.205,66.909 330.610,66.909 331.600 M213.700 330.287 C 214.305 330.378,215.295 330.378,215.900 330.287 C 216.505 330.195,216.010 330.120,214.800 330.120 C 213.590 330.120,213.095 330.195,213.700 330.287 M77.505 330.683 C 78.002 330.779,78.722 330.775,79.105 330.675 C 79.487 330.575,79.080 330.496,78.200 330.501 C 77.320 330.505,77.007 330.587,77.505 330.683 M107.105 330.683 C 107.602 330.779,108.322 330.775,108.705 330.675 C 109.087 330.575,108.680 330.496,107.800 330.501 C 106.920 330.505,106.607 330.587,107.105 330.683 M203.700 330.697 C 205.185 330.774,207.615 330.774,209.100 330.697 C 210.585 330.620,209.370 330.557,206.400 330.557 C 203.430 330.557,202.215 330.620,203.700 330.697 M191.491 331.089 C 192.201 331.177,193.461 331.179,194.291 331.092 C 195.121 331.005,194.540 330.933,193.000 330.931 C 191.460 330.929,190.781 331.000,191.491 331.089 M115.107 331.490 C 115.826 331.579,116.906 331.577,117.507 331.486 C 118.108 331.395,117.520 331.322,116.200 331.324 C 114.880 331.326,114.388 331.401,115.107 331.490 M175.119 331.498 C 176.944 331.572,179.824 331.572,181.519 331.497 C 183.214 331.422,181.720 331.361,178.200 331.362 C 174.680 331.362,173.294 331.424,175.119 331.498 M87.505 331.883 C 88.002 331.979,88.722 331.975,89.105 331.875 C 89.487 331.775,89.080 331.696,88.200 331.701 C 87.320 331.705,87.007 331.787,87.505 331.883 M122.100 331.887 C 122.705 331.978,123.695 331.978,124.300 331.887 C 124.905 331.795,124.410 331.720,123.200 331.720 C 121.990 331.720,121.495 331.795,122.100 331.887 M159.900 331.895 C 161.055 331.976,162.945 331.976,164.100 331.895 C 165.255 331.814,164.310 331.748,162.000 331.748 C 159.690 331.748,158.745 331.814,159.900 331.895 M136.882 332.296 C 138.358 332.373,140.878 332.373,142.482 332.297 C 144.087 332.221,142.880 332.158,139.800 332.158 C 136.720 332.157,135.407 332.219,136.882 332.296 M94.700 332.682 C 95.195 332.778,96.005 332.778,96.500 332.682 C 96.995 332.587,96.590 332.509,95.600 332.509 C 94.610 332.509,94.205 332.587,94.700 332.682 M103.100 333.482 C 103.595 333.578,104.405 333.578,104.900 333.482 C 105.395 333.387,104.990 333.309,104.000 333.309 C 103.010 333.309,102.605 333.387,103.100 333.482 M111.907 334.290 C 112.626 334.379,113.706 334.377,114.307 334.286 C 114.908 334.195,114.320 334.122,113.000 334.124 C 111.680 334.126,111.188 334.201,111.907 334.290 M124.500 335.091 C 125.325 335.178,126.675 335.178,127.500 335.091 C 128.325 335.005,127.650 334.934,126.000 334.934 C 124.350 334.934,123.675 335.005,124.500 335.091 M222.500 335.094 C 223.545 335.176,225.255 335.176,226.300 335.094 C 227.345 335.012,226.490 334.944,224.400 334.944 C 222.310 334.944,221.455 335.012,222.500 335.094 M75.505 335.483 C 76.002 335.579,76.722 335.575,77.105 335.475 C 77.487 335.375,77.080 335.296,76.200 335.301 C 75.320 335.305,75.007 335.387,75.505 335.483 M131.500 335.495 C 132.655 335.576,134.545 335.576,135.700 335.495 C 136.855 335.414,135.910 335.348,133.600 335.348 C 131.290 335.348,130.345 335.414,131.500 335.495 M213.116 335.497 C 214.499 335.575,216.659 335.574,217.916 335.495 C 219.172 335.416,218.040 335.352,215.400 335.353 C 212.760 335.353,211.732 335.418,213.116 335.497 M144.100 335.894 C 145.145 335.976,146.855 335.976,147.900 335.894 C 148.945 335.812,148.090 335.744,146.000 335.744 C 143.910 335.744,143.055 335.812,144.100 335.894 M199.113 335.895 C 200.276 335.976,202.076 335.976,203.113 335.893 C 204.151 335.811,203.200 335.745,201.000 335.746 C 198.800 335.747,197.951 335.814,199.113 335.895 M81.505 336.283 C 82.002 336.379,82.722 336.375,83.105 336.275 C 83.487 336.175,83.080 336.096,82.200 336.101 C 81.320 336.105,81.007 336.187,81.505 336.283 M88.305 337.083 C 88.802 337.179,89.522 337.175,89.905 337.075 C 90.287 336.975,89.880 336.896,89.000 336.901 C 88.120 336.905,87.807 336.987,88.305 337.083 M100.300 338.282 C 100.795 338.378,101.605 338.378,102.100 338.282 C 102.595 338.187,102.190 338.109,101.200 338.109 C 100.210 338.109,99.805 338.187,100.300 338.282 M105.300 338.676 C 105.685 338.776,106.315 338.776,106.700 338.676 C 107.085 338.575,106.770 338.493,106.000 338.493 C 105.230 338.493,104.915 338.575,105.300 338.676 M234.400 338.778 C 234.400 338.986,233.545 339.224,232.500 339.306 L 230.600 339.456 232.700 339.528 C 234.332 339.584,234.800 339.466,234.800 339.000 C 234.800 338.670,234.710 338.400,234.600 338.400 C 234.490 338.400,234.400 338.570,234.400 338.778 M116.700 339.489 C 117.415 339.578,118.585 339.578,119.300 339.489 C 120.015 339.401,119.430 339.328,118.000 339.328 C 116.570 339.328,115.985 339.401,116.700 339.489 M124.705 339.883 C 125.202 339.979,125.922 339.975,126.305 339.875 C 126.687 339.775,126.280 339.696,125.400 339.701 C 124.520 339.705,124.207 339.787,124.705 339.883 M223.900 339.882 C 224.395 339.978,225.205 339.978,225.700 339.882 C 226.195 339.787,225.790 339.709,224.800 339.709 C 223.810 339.709,223.405 339.787,223.900 339.882 M129.312 340.295 C 130.364 340.377,131.984 340.376,132.912 340.292 C 133.840 340.208,132.980 340.141,131.000 340.142 C 129.020 340.143,128.260 340.212,129.312 340.295 M215.700 340.296 C 216.965 340.375,219.035 340.375,220.300 340.296 C 221.565 340.216,220.530 340.151,218.000 340.151 C 215.470 340.151,214.435 340.216,215.700 340.296 M140.500 340.691 C 141.325 340.778,142.675 340.778,143.500 340.691 C 144.325 340.605,143.650 340.534,142.000 340.534 C 140.350 340.534,139.675 340.605,140.500 340.691 M202.912 340.695 C 203.964 340.777,205.584 340.776,206.512 340.692 C 207.440 340.608,206.580 340.541,204.600 340.542 C 202.620 340.543,201.860 340.612,202.912 340.695 M159.500 341.100 C 167.035 341.161,179.365 341.161,186.900 341.100 C 194.435 341.039,188.270 340.989,173.200 340.989 C 158.130 340.989,151.965 341.039,159.500 341.100 M95.667 350.300 C 95.213 351.385,95.216 351.387,95.852 350.500 C 96.462 349.649,96.771 349.600,101.492 349.600 L 106.487 349.600 106.238 350.700 C 106.030 351.618,106.062 351.680,106.428 351.076 C 107.414 349.449,106.730 349.200,101.277 349.200 L 96.128 349.200 95.667 350.300 M94.295 352.747 C 93.114 354.747,89.963 358.344,88.665 359.176 C 87.969 359.622,87.600 359.990,87.844 359.993 C 89.056 360.012,95.766 352.433,95.115 351.781 C 95.029 351.695,94.660 352.130,94.295 352.747 M104.806 354.269 C 102.112 360.510,97.193 366.227,92.200 368.921 C 91.540 369.277,91.190 369.575,91.422 369.584 C 94.687 369.708,106.862 355.186,105.904 352.311 C 105.843 352.129,105.349 353.011,104.806 354.269 M55.726 353.180 C 54.481 353.939,53.340 355.474,53.731 355.864 C 53.839 355.972,54.049 355.674,54.199 355.203 C 55.076 352.440,58.654 352.164,62.074 354.595 C 67.465 358.427,75.168 361.660,78.646 361.551 C 80.011 361.508,79.929 361.463,77.968 361.174 C 73.312 360.489,68.190 358.270,62.812 354.608 C 59.212 352.157,57.853 351.883,55.726 353.180 M53.627 358.926 C 53.555 359.799,54.660 360.940,57.110 362.524 C 60.473 364.697,60.800 364.888,60.800 364.674 C 60.800 364.579,59.385 363.572,57.655 362.436 C 55.925 361.300,54.317 359.972,54.082 359.485 C 53.847 358.998,53.642 358.747,53.627 358.926 M85.600 360.600 C 84.830 360.897,83.446 361.153,82.524 361.170 C 81.602 361.186,80.761 361.340,80.655 361.512 C 80.389 361.942,84.748 361.431,86.100 360.873 C 86.922 360.535,87.757 359.831,87.100 360.030 C 87.045 360.047,86.370 360.303,85.600 360.600 M62.800 365.796 C 62.800 366.070,65.249 367.284,65.432 367.101 C 65.519 367.014,64.962 366.644,64.195 366.278 C 63.428 365.912,62.800 365.695,62.800 365.796 M72.400 370.000 C 72.730 370.213,73.270 370.388,73.600 370.388 C 74.133 370.388,74.133 370.345,73.600 370.000 C 73.270 369.787,72.730 369.612,72.400 369.612 C 71.867 369.612,71.867 369.655,72.400 370.000 M75.400 370.800 C 75.840 370.989,76.560 371.144,77.000 371.144 L 77.800 371.144 77.000 370.800 C 76.560 370.611,75.840 370.456,75.400 370.456 L 74.600 370.456 75.400 370.800 M86.800 370.800 C 85.996 371.057,85.957 371.123,86.600 371.132 C 87.040 371.138,87.760 370.989,88.200 370.800 C 89.219 370.362,88.168 370.362,86.800 370.800 M81.300 371.487 C 81.905 371.578,82.895 371.578,83.500 371.487 C 84.105 371.395,83.610 371.320,82.400 371.320 C 81.190 371.320,80.695 371.395,81.300 371.487 " stroke="none" fill="#eabc8d" fill-rule="evenodd"></path><path id="path4" d="M163.900 95.882 C 164.395 95.978,165.205 95.978,165.700 95.882 C 166.195 95.787,165.790 95.709,164.800 95.709 C 163.810 95.709,163.405 95.787,163.900 95.882 M168.105 95.887 C 168.714 95.979,169.614 95.977,170.105 95.882 C 170.597 95.787,170.100 95.711,169.000 95.714 C 167.900 95.717,167.497 95.795,168.105 95.887 M185.000 103.200 C 186.306 104.520,187.465 105.600,187.575 105.600 C 187.685 105.600,186.706 104.520,185.400 103.200 C 184.094 101.880,182.935 100.800,182.825 100.800 C 182.715 100.800,183.694 101.880,185.000 103.200 M157.700 111.076 C 158.085 111.176,158.715 111.176,159.100 111.076 C 159.485 110.975,159.170 110.893,158.400 110.893 C 157.630 110.893,157.315 110.975,157.700 111.076 M156.829 119.054 C 155.306 120.990,156.640 123.655,159.082 123.554 C 159.880 123.520,159.971 123.457,159.400 123.333 C 155.659 122.518,155.758 118.038,159.507 118.475 C 161.232 118.677,161.984 120.418,161.065 122.086 L 160.342 123.400 161.171 122.456 C 162.761 120.645,161.472 118.000,159.000 118.000 C 158.027 118.000,157.430 118.290,156.829 119.054 M175.862 118.731 C 175.498 119.134,175.200 119.624,175.200 119.820 C 175.200 120.017,175.480 119.778,175.823 119.289 C 177.062 117.520,180.000 118.500,180.000 120.682 C 180.000 123.565,176.543 124.131,175.371 121.440 C 175.032 120.662,174.825 120.467,174.816 120.918 C 174.794 121.930,176.585 123.600,177.693 123.600 C 180.129 123.600,181.457 120.281,179.669 118.662 C 178.698 117.783,176.687 117.820,175.862 118.731 M140.128 121.200 C 140.128 122.630,140.201 123.215,140.289 122.500 C 140.378 121.785,140.378 120.615,140.289 119.900 C 140.201 119.185,140.128 119.770,140.128 121.200 M194.137 123.400 C 194.139 125.160,194.209 125.830,194.293 124.889 C 194.378 123.949,194.377 122.509,194.291 121.689 C 194.205 120.870,194.136 121.640,194.137 123.400 M156.000 128.600 C 157.195 129.810,158.263 130.800,158.373 130.800 C 158.483 130.800,157.595 129.810,156.400 128.600 C 155.205 127.390,154.137 126.400,154.027 126.400 C 153.917 126.400,154.805 127.390,156.000 128.600 M193.693 128.000 C 193.693 128.770,193.775 129.085,193.876 128.700 C 193.976 128.315,193.976 127.685,193.876 127.300 C 193.775 126.915,193.693 127.230,193.693 128.000 M171.646 128.467 C 171.621 128.834,171.496 129.464,171.370 129.867 C 171.152 130.562,171.163 130.563,171.597 129.887 C 171.848 129.496,171.973 128.866,171.873 128.487 C 171.711 127.868,171.688 127.866,171.646 128.467 M169.028 130.271 C 168.572 131.459,169.854 132.330,170.700 131.408 C 171.325 130.726,171.326 130.699,170.718 131.156 C 169.844 131.812,169.095 131.360,169.411 130.366 C 169.710 129.424,169.384 129.343,169.028 130.271 M111.000 137.035 L 109.800 138.066 111.100 137.206 C 111.815 136.733,112.400 136.268,112.400 136.173 C 112.400 135.873,112.231 135.978,111.000 137.035 M163.985 138.618 C 163.472 139.237,164.418 140.800,165.306 140.800 C 165.517 140.800,165.264 140.455,164.744 140.034 C 163.397 138.942,164.010 138.653,166.261 139.319 C 167.909 139.807,168.470 139.812,170.000 139.353 C 172.264 138.673,172.400 138.674,172.400 139.373 C 172.400 139.688,172.026 140.065,171.570 140.210 C 171.113 140.354,170.828 140.561,170.936 140.669 C 171.365 141.098,172.800 139.920,172.800 139.139 C 172.800 138.434,172.632 138.347,171.700 138.570 C 168.866 139.248,166.908 139.276,165.706 138.655 C 164.621 138.094,164.424 138.090,163.985 138.618 M103.549 143.500 C 101.698 145.425,99.767 147.630,99.257 148.400 C 98.421 149.664,98.460 149.644,99.653 148.200 C 100.380 147.320,102.407 145.115,104.158 143.300 C 105.909 141.485,107.246 140.000,107.128 140.000 C 107.010 140.000,105.400 141.575,103.549 143.500 M166.469 141.251 C 166.761 141.436,167.540 141.588,168.200 141.588 C 168.860 141.588,169.639 141.436,169.931 141.251 C 170.255 141.046,169.579 140.914,168.200 140.914 C 166.821 140.914,166.145 141.046,166.469 141.251 M184.400 146.491 C 182.970 147.841,182.340 148.568,183.000 148.106 C 184.161 147.294,187.548 143.982,187.181 144.018 C 187.082 144.027,185.830 145.140,184.400 146.491 M178.800 150.400 C 178.030 150.822,177.544 151.174,177.720 151.183 C 178.144 151.205,180.400 150.032,180.400 149.790 C 180.400 149.528,180.377 149.537,178.800 150.400 M95.000 154.800 C 94.659 155.460,94.469 156.000,94.579 156.000 C 94.689 156.000,95.059 155.460,95.400 154.800 C 95.741 154.140,95.931 153.600,95.821 153.600 C 95.711 153.600,95.341 154.140,95.000 154.800 M176.097 158.000 C 176.091 158.990,176.221 160.880,176.385 162.200 L 176.682 164.600 176.706 162.400 C 176.719 161.190,176.590 159.300,176.418 158.200 L 176.107 156.200 176.097 158.000 M176.890 168.400 C 176.884 169.390,177.016 171.190,177.183 172.400 L 177.487 174.600 177.514 172.400 C 177.529 171.190,177.397 169.390,177.220 168.400 L 176.900 166.600 176.890 168.400 M88.200 172.000 C 88.048 172.691,88.007 173.341,88.109 173.442 C 88.211 173.544,88.409 173.053,88.550 172.350 C 88.883 170.683,88.560 170.360,88.200 172.000 M87.456 174.884 C 87.321 175.388,87.227 176.160,87.246 176.600 C 87.265 177.040,87.445 176.698,87.646 175.840 C 88.036 174.178,87.870 173.340,87.456 174.884 M177.882 180.800 C 178.003 182.890,178.169 184.675,178.251 184.767 C 178.529 185.078,178.343 180.610,178.002 178.800 C 177.764 177.538,177.728 178.137,177.882 180.800 M86.656 178.884 C 86.521 179.388,86.428 180.250,86.449 180.800 C 86.472 181.389,86.631 181.071,86.836 180.025 C 87.203 178.152,87.073 177.327,86.656 178.884 M181.643 183.671 C 180.849 184.590,179.795 185.768,179.300 186.289 C 178.805 186.810,178.400 187.408,178.400 187.618 C 178.400 188.447,179.053 187.915,180.130 186.209 C 184.750 178.896,188.979 181.646,198.627 198.236 C 199.895 200.416,201.712 203.550,202.663 205.200 C 203.615 206.850,204.395 207.927,204.397 207.593 C 204.399 207.259,203.950 206.323,203.400 205.514 C 202.850 204.705,202.400 203.957,202.400 203.853 C 202.400 203.611,198.638 197.053,197.437 195.200 C 196.937 194.430,195.735 192.544,194.764 191.008 C 189.184 182.179,184.967 179.821,181.643 183.671 M85.709 186.800 C 85.709 187.790,85.787 188.195,85.882 187.700 C 85.978 187.205,85.978 186.395,85.882 185.900 C 85.787 185.405,85.709 185.810,85.709 186.800 M85.314 192.200 C 85.317 193.300,85.395 193.703,85.487 193.095 C 85.579 192.486,85.577 191.586,85.482 191.095 C 85.387 190.603,85.311 191.100,85.314 192.200 M84.872 202.276 C 84.832 205.178,84.935 207.637,85.100 207.740 C 85.265 207.842,85.352 206.278,85.293 204.263 C 85.101 197.647,84.945 196.913,84.872 202.276 M126.300 206.088 C 128.090 206.951,126.943 207.921,124.969 207.214 C 123.884 206.825,123.856 206.839,124.576 207.398 C 125.577 208.174,127.159 208.172,127.457 207.395 C 127.748 206.637,126.916 205.591,126.051 205.627 C 125.585 205.646,125.655 205.777,126.300 206.088 M130.100 207.061 C 129.049 207.494,129.583 208.732,131.027 209.209 C 131.812 209.468,132.544 209.589,132.655 209.478 C 132.766 209.367,132.306 209.155,131.633 209.007 C 130.239 208.701,129.722 208.118,130.316 207.524 C 130.592 207.248,131.380 207.310,132.761 207.715 C 134.818 208.318,135.567 208.269,133.900 207.641 C 132.507 207.116,130.653 206.833,130.100 207.061 M85.258 211.400 C 85.210 212.280,84.911 214.080,84.592 215.400 C 84.273 216.720,84.027 218.430,84.045 219.200 C 84.066 220.123,84.337 219.374,84.841 217.000 C 85.261 215.020,85.547 212.590,85.475 211.600 L 85.344 209.800 85.258 211.400 M208.413 215.384 C 210.855 219.628,211.666 220.867,211.867 220.666 C 212.004 220.530,209.298 215.634,207.575 212.900 C 206.054 210.487,206.705 212.415,208.413 215.384 M175.480 214.253 C 174.599 215.134,176.313 219.200,177.565 219.200 C 178.764 219.200,178.894 218.014,177.912 216.036 C 177.053 214.307,176.115 213.618,175.480 214.253 M177.615 216.236 C 178.411 218.093,178.366 218.800,177.450 218.800 C 176.864 218.800,175.600 216.331,175.600 215.186 C 175.600 213.732,176.813 214.363,177.615 216.236 M188.027 220.971 C 187.525 221.506,187.209 222.181,187.326 222.471 C 187.489 222.882,187.544 222.871,187.568 222.426 C 187.586 222.110,187.991 221.435,188.470 220.926 C 188.948 220.417,189.249 220.000,189.139 220.000 C 189.029 220.000,188.529 220.437,188.027 220.971 M83.471 221.947 C 83.344 222.578,83.396 223.613,83.586 224.247 C 83.878 225.221,83.937 225.043,83.966 223.100 C 84.003 220.581,83.826 220.169,83.471 221.947 M178.667 221.067 C 178.188 221.545,178.385 222.802,179.183 224.367 C 179.963 225.896,180.987 226.669,181.383 226.028 C 181.497 225.843,181.231 225.597,180.790 225.482 C 179.883 225.244,178.630 222.621,178.983 221.699 C 179.186 221.172,179.322 221.186,180.008 221.808 C 180.850 222.569,181.132 222.092,180.320 221.280 C 179.789 220.749,179.076 220.657,178.667 221.067 M187.213 224.656 C 187.231 225.144,188.357 226.576,188.561 226.371 C 188.655 226.277,188.387 225.775,187.966 225.256 C 187.545 224.736,187.206 224.466,187.213 224.656 M214.402 225.100 C 214.404 225.417,220.139 233.118,220.882 233.800 C 221.675 234.528,220.760 233.129,217.678 228.900 C 214.768 224.906,214.398 224.478,214.402 225.100 M84.148 230.400 C 84.148 232.710,84.214 233.655,84.295 232.500 C 84.376 231.345,84.376 229.455,84.295 228.300 C 84.214 227.145,84.148 228.090,84.148 230.400 M182.000 228.513 C 182.000 229.854,183.661 232.200,184.610 232.200 C 185.452 232.200,185.917 230.957,185.304 230.344 C 185.077 230.117,184.946 230.311,184.967 230.846 C 185.020 232.237,184.095 232.176,183.213 230.729 C 181.789 228.392,182.617 226.830,184.183 228.900 C 184.862 229.797,184.862 229.797,184.286 228.800 C 183.479 227.404,182.000 227.218,182.000 228.513 M185.989 234.214 C 185.365 234.965,185.962 236.284,187.561 237.687 L 188.600 238.600 187.750 237.600 C 186.382 235.990,185.865 234.775,186.346 234.294 C 187.157 233.483,189.520 236.589,189.041 237.836 C 188.922 238.146,188.999 238.400,189.213 238.400 C 189.900 238.400,189.625 236.759,188.719 235.462 C 187.330 233.472,186.804 233.231,185.989 234.214 M197.067 234.667 C 196.496 235.237,196.834 237.485,197.616 238.325 C 198.781 239.576,198.976 239.406,197.957 238.027 C 197.317 237.162,197.154 236.531,197.335 235.627 C 197.585 234.373,197.536 234.197,197.067 234.667 M83.411 236.475 C 83.249 237.506,83.202 238.586,83.306 238.875 C 83.410 239.164,83.627 238.556,83.789 237.525 C 83.951 236.494,83.998 235.414,83.894 235.125 C 83.790 234.836,83.573 235.444,83.411 236.475 M225.523 239.108 C 227.359 241.301,231.018 244.800,231.475 244.800 C 231.645 244.800,230.081 243.090,228.000 241.000 C 223.775 236.757,223.164 236.291,225.523 239.108 M82.847 239.800 C 82.751 240.635,80.747 252.804,79.948 257.400 C 79.489 260.040,78.761 263.550,78.331 265.200 C 77.368 268.886,73.482 282.337,72.668 284.800 C 70.423 291.592,69.201 300.088,68.811 311.600 C 68.644 316.550,68.390 320.960,68.248 321.400 C 67.804 322.774,68.419 323.068,75.200 324.725 C 101.908 331.251,122.404 332.791,166.800 331.605 C 239.002 329.676,255.146 328.651,267.300 325.223 C 270.660 324.276,271.503 324.042,273.800 323.419 C 291.024 318.749,304.465 312.923,311.797 306.951 C 314.376 304.850,315.159 305.003,317.703 308.108 C 321.801 313.109,323.473 320.769,321.806 326.900 C 321.407 328.368,322.173 328.356,328.494 326.793 C 334.407 325.330,334.205 325.520,334.179 321.478 C 334.140 315.459,330.844 308.335,326.628 305.159 C 324.754 303.747,324.453 303.267,325.300 303.043 C 327.220 302.535,334.157 300.116,335.800 299.381 C 336.900 298.889,339.129 297.925,340.753 297.239 C 345.921 295.054,354.720 288.759,354.312 287.536 C 354.223 287.268,353.667 286.689,353.078 286.249 L 352.006 285.449 350.604 287.087 C 347.123 291.153,322.413 301.018,314.500 301.499 C 311.371 301.690,311.200 301.749,311.200 302.630 C 311.200 305.432,291.930 314.051,273.201 319.626 C 269.544 320.715,269.608 320.742,269.549 318.100 L 269.497 315.800 269.099 318.130 C 268.474 321.780,268.317 321.779,279.097 318.199 C 295.561 312.731,307.675 307.498,310.567 304.606 C 311.341 303.833,312.342 303.200,312.792 303.200 C 313.242 303.200,313.923 303.028,314.305 302.818 C 314.687 302.609,316.256 302.140,317.792 301.777 C 320.619 301.108,323.755 300.074,329.200 298.014 C 342.246 293.080,347.958 290.393,350.621 287.938 C 352.294 286.396,352.487 286.316,353.084 286.912 C 355.075 288.903,342.363 296.501,329.600 300.949 C 326.190 302.138,321.872 303.678,320.005 304.373 C 316.671 305.613,316.582 305.623,315.122 304.965 L 313.635 304.294 311.518 306.208 C 306.824 310.450,299.694 314.076,288.200 318.064 C 287.540 318.293,286.640 318.632,286.200 318.816 C 285.760 319.001,283.555 319.703,281.300 320.376 C 270.554 323.584,268.932 324.076,268.000 324.406 C 263.809 325.892,251.275 327.621,239.200 328.378 C 223.422 329.368,217.143 329.601,172.600 330.844 C 142.890 331.673,120.254 331.371,108.200 329.986 C 99.638 329.002,80.059 325.544,74.200 323.981 C 73.320 323.747,71.880 323.374,71.000 323.154 C 68.749 322.591,68.838 323.093,69.239 313.200 C 69.783 299.770,71.229 290.669,74.343 281.090 C 75.750 276.764,76.568 273.866,79.000 264.600 C 80.512 258.839,83.412 241.368,83.071 240.075 C 82.973 239.704,82.872 239.580,82.847 239.800 M192.731 241.550 C 194.595 244.151,193.553 245.099,191.462 242.704 L 190.324 241.400 191.212 242.732 C 192.262 244.306,192.995 244.668,193.795 244.005 C 194.497 243.421,193.874 241.923,192.379 240.599 C 191.719 240.015,191.814 240.270,192.731 241.550 M208.827 245.371 C 208.325 245.906,208.009 246.581,208.126 246.871 C 208.289 247.282,208.344 247.271,208.368 246.826 C 208.386 246.510,208.791 245.835,209.270 245.326 C 209.748 244.817,210.049 244.400,209.939 244.400 C 209.829 244.400,209.329 244.837,208.827 245.371 M195.800 245.886 C 196.240 245.993,197.050 246.467,197.600 246.940 L 198.600 247.800 197.630 246.700 C 197.097 246.095,196.287 245.621,195.830 245.646 C 195.026 245.691,195.025 245.699,195.800 245.886 M195.200 247.163 C 195.200 247.528,197.954 250.199,198.098 249.973 C 198.158 249.878,197.531 249.144,196.704 248.341 C 195.877 247.539,195.200 247.009,195.200 247.163 M234.814 248.135 C 237.858 250.915,246.000 256.828,246.000 256.259 C 246.000 256.155,244.869 255.263,243.487 254.277 C 242.104 253.290,239.629 251.385,237.987 250.042 C 235.440 247.960,233.050 246.524,234.814 248.135 M208.000 248.871 C 208.000 249.204,208.388 249.819,208.862 250.238 L 209.724 251.000 208.983 249.800 C 207.974 248.166,208.000 248.191,208.000 248.871 M200.400 252.525 C 200.400 252.594,200.985 253.179,201.700 253.825 L 203.000 255.000 201.825 253.700 C 200.730 252.488,200.400 252.216,200.400 252.525 M223.201 255.398 C 222.686 255.948,222.339 256.448,222.432 256.511 C 222.524 256.574,223.084 256.124,223.674 255.512 C 224.265 254.901,224.612 254.400,224.444 254.400 C 224.277 254.400,223.717 254.849,223.201 255.398 M249.600 258.974 C 249.600 259.520,261.529 266.204,261.879 265.854 C 261.990 265.743,260.950 265.081,259.567 264.383 C 258.184 263.685,255.483 262.143,253.565 260.957 C 250.240 258.900,249.600 258.580,249.600 258.974 M109.739 262.968 C 100.318 265.253,93.232 275.122,94.207 284.600 C 96.634 308.207,129.252 310.766,134.996 287.800 C 138.713 272.940,124.843 259.304,109.739 262.968 M120.519 263.791 C 132.199 267.335,138.133 279.937,133.331 291.000 C 125.033 310.114,96.693 305.534,94.962 284.800 C 93.795 270.815,107.240 259.762,120.519 263.791 M239.862 265.531 C 238.679 266.839,239.401 270.800,240.823 270.800 C 241.030 270.800,240.840 270.440,240.400 270.000 C 239.434 269.034,239.348 266.938,240.223 265.689 C 240.976 264.613,240.773 264.524,239.862 265.531 M112.126 271.268 L 109.800 275.785 106.200 276.309 C 98.612 277.413,98.598 277.430,102.406 280.805 C 106.998 284.876,106.914 284.663,106.042 290.047 C 105.041 296.235,105.145 296.367,109.161 294.043 C 110.172 293.458,111.866 292.534,112.925 291.989 L 114.849 291.000 119.277 293.327 C 121.713 294.607,123.858 295.502,124.044 295.316 C 124.344 295.016,123.477 287.480,122.979 286.052 C 122.870 285.738,124.359 283.902,126.471 281.749 C 131.037 277.092,131.297 277.398,121.633 276.047 L 119.865 275.800 117.633 271.414 C 114.812 265.872,114.903 265.875,112.126 271.268 M117.016 271.634 C 119.461 276.604,118.963 276.232,124.218 277.008 C 129.861 277.841,129.820 277.726,125.819 281.514 C 122.158 284.978,121.886 285.612,122.753 288.636 C 122.947 289.313,123.238 291.001,123.398 292.387 L 123.691 294.907 119.302 292.600 L 114.914 290.293 111.024 292.347 C 105.572 295.225,105.770 295.335,106.803 290.000 C 107.818 284.760,108.057 285.506,104.089 281.537 C 102.127 279.576,100.630 277.910,100.761 277.836 C 100.893 277.761,103.143 277.380,105.762 276.989 L 110.525 276.277 112.553 271.939 C 115.000 266.705,114.605 266.732,117.016 271.634 M266.000 268.178 C 266.000 268.344,271.883 271.200,272.224 271.200 C 272.308 271.200,273.327 271.630,274.488 272.156 C 281.508 275.335,290.761 278.170,302.200 280.647 C 304.840 281.219,307.540 281.813,308.200 281.968 C 309.314 282.230,309.423 282.420,309.728 284.625 C 310.075 287.133,309.765 299.505,309.327 300.646 C 308.744 302.165,282.987 301.027,271.100 298.957 L 269.600 298.695 269.651 307.248 C 269.692 314.256,269.768 315.331,270.073 313.200 C 270.277 311.770,270.355 308.017,270.247 304.860 L 270.049 299.120 270.925 299.373 C 272.304 299.773,275.825 300.376,280.600 301.031 C 286.048 301.777,308.706 302.254,309.600 301.641 C 310.106 301.294,310.200 299.701,310.200 291.521 L 310.200 281.812 304.400 280.509 C 287.041 276.609,280.895 274.693,271.450 270.240 C 266.960 268.122,266.000 267.759,266.000 268.178 M257.194 274.015 C 256.826 274.904,256.805 275.467,257.118 276.115 C 257.499 276.903,257.549 276.823,257.573 275.380 C 257.588 274.489,257.816 273.544,258.080 273.280 C 258.393 272.967,258.410 272.800,258.129 272.800 C 257.891 272.800,257.471 273.347,257.194 274.015 M105.773 279.244 C 105.617 279.495,106.431 280.582,107.644 281.744 L 109.790 283.800 107.795 281.685 C 106.158 279.949,105.908 279.502,106.400 279.191 C 106.759 278.965,106.808 278.810,106.524 278.806 C 106.262 278.803,105.924 279.000,105.773 279.244 M67.200 331.576 C 67.200 334.139,67.035 334.069,75.732 335.201 C 77.309 335.407,80.015 335.758,81.745 335.983 C 118.451 340.752,179.042 342.258,226.784 339.589 C 234.796 339.141,234.784 339.146,234.794 336.727 C 234.802 334.673,234.585 334.645,223.669 335.263 C 208.159 336.142,136.966 336.013,123.200 335.080 C 112.746 334.372,98.843 333.160,92.600 332.412 C 90.840 332.201,86.880 331.739,83.800 331.386 C 80.720 331.033,76.166 330.487,73.680 330.172 C 66.868 329.310,67.200 329.238,67.200 331.576 M73.400 330.768 C 79.008 331.560,87.842 332.561,94.800 333.194 C 97.330 333.424,101.110 333.786,103.200 333.999 C 105.290 334.212,109.610 334.575,112.800 334.805 C 115.990 335.036,119.410 335.315,120.400 335.424 C 132.520 336.764,182.576 337.158,211.737 336.143 C 222.112 335.782,231.320 335.467,232.200 335.443 C 233.853 335.399,234.797 337.363,233.666 338.494 C 232.120 340.040,151.025 340.927,131.600 339.610 C 128.410 339.394,122.650 339.029,118.800 338.799 C 114.950 338.569,110.000 338.208,107.800 337.996 C 105.600 337.785,101.640 337.419,99.000 337.184 C 80.744 335.557,68.512 333.924,67.906 333.033 C 66.880 331.522,67.702 329.922,69.371 330.182 C 70.047 330.287,71.860 330.550,73.400 330.768 M95.846 350.586 C 95.491 351.128,95.200 351.681,95.200 351.814 C 95.200 352.292,92.654 355.835,91.044 357.600 L 89.400 359.400 91.458 357.457 C 92.590 356.388,94.120 354.440,94.858 353.129 C 95.596 351.818,96.438 350.487,96.729 350.172 C 97.019 349.858,97.085 349.600,96.875 349.600 C 96.664 349.600,96.201 350.044,95.846 350.586 M102.700 349.897 C 105.822 350.046,106.232 350.472,105.168 352.461 C 104.930 352.905,104.835 353.368,104.956 353.490 C 105.185 353.718,105.807 352.308,106.240 350.582 L 106.487 349.600 103.143 349.679 L 99.800 349.759 102.700 349.897 M56.538 353.106 C 56.284 353.268,57.032 353.400,58.200 353.400 C 59.368 353.400,60.116 353.268,59.862 353.106 C 59.608 352.944,58.860 352.812,58.200 352.812 C 57.540 352.812,56.792 352.944,56.538 353.106 M103.475 356.075 C 102.904 357.228,102.507 358.240,102.592 358.325 C 102.677 358.410,103.220 357.544,103.800 356.400 C 104.380 355.256,104.777 354.244,104.683 354.150 C 104.589 354.056,104.046 354.922,103.475 356.075 M62.144 354.709 C 62.460 355.221,64.800 356.953,64.800 356.675 C 64.800 356.576,64.139 355.991,63.332 355.375 C 62.524 354.759,61.989 354.459,62.144 354.709 M53.650 357.120 C 53.605 358.320,54.530 360.800,55.024 360.800 C 55.136 360.800,55.007 360.395,54.736 359.900 C 54.465 359.405,54.121 358.280,53.972 357.400 C 53.709 355.852,53.699 355.843,53.650 357.120 M78.305 361.883 C 78.802 361.979,79.522 361.975,79.905 361.875 C 80.287 361.775,79.880 361.696,79.000 361.701 C 78.120 361.705,77.807 361.787,78.305 361.883 M81.300 361.876 C 81.685 361.976,82.315 361.976,82.700 361.876 C 83.085 361.775,82.770 361.693,82.000 361.693 C 81.230 361.693,80.915 361.775,81.300 361.876 M60.000 363.964 C 60.550 364.414,61.180 364.783,61.400 364.785 C 61.828 364.788,61.105 364.234,59.800 363.560 C 59.269 363.285,59.336 363.421,60.000 363.964 M96.800 365.281 C 95.590 366.406,95.140 366.955,95.800 366.500 C 96.939 365.715,99.546 363.180,99.175 363.218 C 99.079 363.228,98.010 364.157,96.800 365.281 M62.000 364.998 C 62.000 365.267,66.049 367.284,66.229 367.105 C 66.311 367.023,65.393 366.473,64.189 365.882 C 62.985 365.292,62.000 364.894,62.000 364.998 M70.800 369.182 C 71.130 369.405,71.745 369.591,72.167 369.594 C 73.190 369.602,72.871 369.373,71.400 369.044 C 70.524 368.848,70.362 368.885,70.800 369.182 M73.600 369.982 C 73.930 370.205,74.545 370.391,74.967 370.394 C 75.990 370.402,75.671 370.173,74.200 369.844 C 73.324 369.648,73.162 369.685,73.600 369.982 M77.117 370.872 C 77.982 371.216,85.491 371.207,86.726 370.860 C 87.235 370.717,85.128 370.600,82.043 370.600 C 78.958 370.600,76.742 370.722,77.117 370.872 " stroke="none" fill="#969895" fill-rule="evenodd"></path></g></svg>